<svg width="358" height="293" viewBox="0 0 358 293" fill="none" xmlns="http://www.w3.org/2000/svg">
<rect width="358" height="293" rx="20" fill="black"/>
<rect x="24" y="169" width="311" height="42" rx="21" fill="white"/>
<path d="M57.5 183.438H42.5C42.2514 183.438 42.0129 183.536 41.8371 183.712C41.6613 183.888 41.5625 184.126 41.5625 184.375V195C41.5625 195.414 41.7271 195.812 42.0201 196.105C42.3132 196.398 42.7106 196.562 43.125 196.562H56.875C57.2894 196.562 57.6868 196.398 57.9799 196.105C58.2729 195.812 58.4375 195.414 58.4375 195V184.375C58.4375 184.126 58.3387 183.888 58.1629 183.712C57.9871 183.536 57.7486 183.438 57.5 183.438ZM50 189.978L44.9102 185.312H55.0898L50 189.978ZM47.2492 190L43.4375 193.494V186.506L47.2492 190ZM48.6367 191.272L49.3664 191.941C49.5393 192.1 49.7654 192.188 50 192.188C50.2346 192.188 50.4607 192.1 50.6336 191.941L51.3633 191.272L55.0898 194.688H44.9102L48.6367 191.272ZM52.7508 190L56.5625 186.506V193.494L52.7508 190Z" fill="black" fill-opacity="0.4"/>
<path d="M79.224 195.5H73.218V185.476H79.21V186.4H74.226V190.012H78.748V190.922H74.226V194.576H79.224V195.5ZM82.0267 195.5H81.0607V188.724H81.9007L82.0407 189.9C82.4887 189.032 83.3847 188.542 84.3647 188.542C86.2267 188.542 86.9967 189.648 86.9967 191.356V195.5H86.0307V191.566C86.0307 189.984 85.3167 189.424 84.1967 189.424C82.8107 189.424 82.0267 190.432 82.0267 191.958V195.5ZM90.4761 195.5H89.5241V189.536H88.1661V188.724H89.5241V186.582H90.4761V188.724H91.8341V189.536H90.4761V195.5ZM95.8656 195.668C93.8776 195.668 92.5476 194.24 92.5476 192.112C92.5476 189.998 93.8636 188.542 95.7956 188.542C97.6296 188.542 98.8756 189.844 98.8756 191.762V192.238H93.4856C93.5556 193.89 94.4236 194.842 95.8796 194.842C96.9856 194.842 97.6996 194.366 97.9516 193.47H98.8756C98.5116 194.898 97.4616 195.668 95.8656 195.668ZM95.7956 189.368C94.5216 189.368 93.6816 190.208 93.5136 191.538H97.9096C97.9096 190.236 97.0696 189.368 95.7956 189.368ZM103.962 188.64V189.508H103.43C102.184 189.508 101.386 190.348 101.386 191.636V195.5H100.42V188.724H101.33L101.4 189.774C101.666 189.046 102.38 188.57 103.332 188.57C103.542 188.57 103.724 188.584 103.962 188.64ZM108.443 198.454V197.656H109.185C109.773 197.656 110.361 197.614 110.697 196.704L110.991 195.906L108.247 188.724H109.269L111.453 194.632L113.595 188.724H114.589L111.481 197.054C111.089 198.118 110.431 198.552 109.465 198.552C109.059 198.552 108.751 198.524 108.443 198.454ZM115.011 192.112C115.011 190.04 116.467 188.542 118.455 188.542C120.443 188.542 121.899 190.04 121.899 192.112C121.899 194.17 120.443 195.668 118.455 195.668C116.467 195.668 115.011 194.17 115.011 192.112ZM115.991 192.098C115.991 193.694 116.999 194.8 118.455 194.8C119.897 194.8 120.919 193.694 120.919 192.098C120.919 190.53 119.897 189.41 118.455 189.41C116.999 189.41 115.991 190.53 115.991 192.098ZM128.039 188.724H129.005V195.5H128.165L128.039 194.352C127.661 195.136 126.723 195.668 125.659 195.668C124.063 195.668 123.195 194.576 123.195 192.924V188.71H124.175V192.616C124.175 194.226 124.889 194.8 125.967 194.8C127.269 194.8 128.039 193.932 128.039 192.322V188.724ZM134.56 188.64V189.508H134.028C132.782 189.508 131.984 190.348 131.984 191.636V195.5H131.018V188.724H131.928L131.998 189.774C132.264 189.046 132.978 188.57 133.93 188.57C134.14 188.57 134.322 188.584 134.56 188.64ZM142.569 195.668C140.581 195.668 139.251 194.24 139.251 192.112C139.251 189.998 140.567 188.542 142.499 188.542C144.333 188.542 145.579 189.844 145.579 191.762V192.238H140.189C140.259 193.89 141.127 194.842 142.583 194.842C143.689 194.842 144.403 194.366 144.655 193.47H145.579C145.215 194.898 144.165 195.668 142.569 195.668ZM142.499 189.368C141.225 189.368 140.385 190.208 140.217 191.538H144.613C144.613 190.236 143.773 189.368 142.499 189.368ZM148.089 195.5H147.123V188.724H147.963L148.075 189.69C148.411 188.976 149.167 188.542 150.119 188.542C151.183 188.542 151.981 189.102 152.303 189.984C152.611 189.102 153.437 188.542 154.529 188.542C155.999 188.542 156.965 189.494 156.965 191.062V195.5H156.027V191.258C156.027 190.096 155.383 189.41 154.347 189.41C153.213 189.41 152.541 190.264 152.541 191.314V195.5H151.589V191.244C151.589 190.096 150.931 189.424 149.909 189.424C148.775 189.424 148.089 190.264 148.089 191.3V195.5ZM160.854 195.668C159.412 195.668 158.558 194.856 158.558 193.666C158.558 192.42 159.51 191.636 161.092 191.51L163.332 191.328V191.104C163.332 189.774 162.534 189.354 161.54 189.354C160.364 189.354 159.664 189.886 159.664 190.796H158.782C158.782 189.424 159.902 188.542 161.568 188.542C163.136 188.542 164.284 189.326 164.284 191.118V195.5H163.472L163.346 194.31C162.926 195.164 162.002 195.668 160.854 195.668ZM161.078 194.884C162.506 194.884 163.332 193.89 163.332 192.42V192.056L161.33 192.21C160.056 192.322 159.538 192.882 159.538 193.638C159.538 194.464 160.154 194.884 161.078 194.884ZM166.699 186.862C166.307 186.862 165.985 186.54 165.985 186.148C165.985 185.756 166.307 185.42 166.699 185.42C167.091 185.42 167.427 185.756 167.427 186.148C167.427 186.54 167.091 186.862 166.699 186.862ZM166.223 195.5V188.724H167.189V195.5H166.223ZM170.211 195.5H169.245V185.294H170.211V195.5ZM178.095 195.668C176.653 195.668 175.799 194.856 175.799 193.666C175.799 192.42 176.751 191.636 178.333 191.51L180.573 191.328V191.104C180.573 189.774 179.775 189.354 178.781 189.354C177.605 189.354 176.905 189.886 176.905 190.796H176.023C176.023 189.424 177.143 188.542 178.809 188.542C180.377 188.542 181.525 189.326 181.525 191.118V195.5H180.713L180.587 194.31C180.167 195.164 179.243 195.668 178.095 195.668ZM178.319 194.884C179.747 194.884 180.573 193.89 180.573 192.42V192.056L178.571 192.21C177.297 192.322 176.779 192.882 176.779 193.638C176.779 194.464 177.395 194.884 178.319 194.884ZM186.123 195.668C184.149 195.668 182.987 194.156 182.987 192.126C182.987 190.082 184.149 188.542 186.165 188.542C187.285 188.542 188.181 189.032 188.657 190.012V185.294H189.623V195.5H188.783L188.685 194.114C188.209 195.164 187.257 195.668 186.123 195.668ZM186.291 194.786C187.775 194.786 188.643 193.666 188.643 192.098C188.643 190.544 187.775 189.41 186.291 189.41C184.821 189.41 183.967 190.544 183.967 192.098C183.967 193.666 184.821 194.786 186.291 194.786ZM194.299 195.668C192.325 195.668 191.163 194.156 191.163 192.126C191.163 190.082 192.325 188.542 194.341 188.542C195.461 188.542 196.357 189.032 196.833 190.012V185.294H197.799V195.5H196.959L196.861 194.114C196.385 195.164 195.433 195.668 194.299 195.668ZM194.467 194.786C195.951 194.786 196.819 193.666 196.819 192.098C196.819 190.544 195.951 189.41 194.467 189.41C192.997 189.41 192.143 190.544 192.143 192.098C192.143 193.666 192.997 194.786 194.467 194.786ZM203.357 188.64V189.508H202.825C201.579 189.508 200.781 190.348 200.781 191.636V195.5H199.815V188.724H200.725L200.795 189.774C201.061 189.046 201.775 188.57 202.727 188.57C202.937 188.57 203.119 188.584 203.357 188.64ZM207.223 195.668C205.235 195.668 203.905 194.24 203.905 192.112C203.905 189.998 205.221 188.542 207.153 188.542C208.987 188.542 210.233 189.844 210.233 191.762V192.238H204.843C204.913 193.89 205.781 194.842 207.237 194.842C208.343 194.842 209.057 194.366 209.309 193.47H210.233C209.869 194.898 208.819 195.668 207.223 195.668ZM207.153 189.368C205.879 189.368 205.039 190.208 204.871 191.538H209.267C209.267 190.236 208.427 189.368 207.153 189.368ZM211.204 193.596H212.128C212.128 194.38 212.716 194.87 213.668 194.87C214.718 194.87 215.334 194.422 215.334 193.694C215.334 193.134 215.054 192.812 214.256 192.616L213.094 192.322C211.918 192.028 211.344 191.412 211.344 190.488C211.344 189.298 212.338 188.542 213.794 188.542C215.222 188.542 216.146 189.326 216.188 190.586H215.25C215.222 189.802 214.676 189.34 213.766 189.34C212.814 189.34 212.282 189.746 212.282 190.474C212.282 190.992 212.646 191.356 213.388 191.538L214.55 191.832C215.726 192.126 216.258 192.672 216.258 193.652C216.258 194.87 215.222 195.668 213.682 195.668C212.156 195.668 211.204 194.856 211.204 193.596ZM217.274 193.596H218.198C218.198 194.38 218.786 194.87 219.738 194.87C220.788 194.87 221.404 194.422 221.404 193.694C221.404 193.134 221.124 192.812 220.326 192.616L219.164 192.322C217.988 192.028 217.414 191.412 217.414 190.488C217.414 189.298 218.408 188.542 219.864 188.542C221.292 188.542 222.216 189.326 222.258 190.586H221.32C221.292 189.802 220.746 189.34 219.836 189.34C218.884 189.34 218.352 189.746 218.352 190.474C218.352 190.992 218.716 191.356 219.458 191.538L220.62 191.832C221.796 192.126 222.328 192.672 222.328 193.652C222.328 194.87 221.292 195.668 219.752 195.668C218.226 195.668 217.274 194.856 217.274 193.596Z" fill="black" fill-opacity="0.4"/>
<rect x="24" y="223" width="311" height="42" rx="21" fill="white"/>
<path d="M105.088 242.108C105.088 240.372 106.488 239.196 108.574 239.196C110.506 239.196 111.752 240.274 111.864 242.024H110.478C110.408 241.016 109.694 240.428 108.56 240.428C107.286 240.428 106.46 241.072 106.46 242.066C106.46 242.878 106.922 243.368 107.874 243.592L109.54 243.984C111.192 244.362 112.032 245.258 112.032 246.686C112.032 248.506 110.618 249.668 108.462 249.668C106.404 249.668 105.032 248.59 104.948 246.854H106.348C106.376 247.82 107.188 248.436 108.462 248.436C109.806 248.436 110.66 247.806 110.66 246.798C110.66 246 110.226 245.496 109.26 245.272L107.594 244.894C105.942 244.516 105.088 243.564 105.088 242.108ZM118.264 242.654H119.566V249.5H118.39L118.25 248.464C117.858 249.178 116.948 249.668 115.94 249.668C114.344 249.668 113.448 248.59 113.448 246.91V242.654H114.764V246.476C114.764 247.946 115.394 248.506 116.402 248.506C117.606 248.506 118.264 247.736 118.264 246.266V242.654ZM122.665 249.5H121.475V239.196H122.791V243.83C123.239 242.934 124.163 242.458 125.283 242.458C127.243 242.458 128.419 243.998 128.419 246.112C128.419 248.184 127.187 249.668 125.199 249.668C124.121 249.668 123.211 249.192 122.763 248.254L122.665 249.5ZM122.805 246.056C122.805 247.484 123.617 248.478 124.961 248.478C126.305 248.478 127.103 247.47 127.103 246.056C127.103 244.656 126.305 243.648 124.961 243.648C123.617 243.648 122.805 244.656 122.805 246.056ZM129.31 247.512H130.57C130.57 248.212 131.102 248.632 131.97 248.632C132.894 248.632 133.426 248.254 133.426 247.624C133.426 247.162 133.202 246.882 132.488 246.7L131.284 246.42C130.066 246.126 129.492 245.524 129.492 244.516C129.492 243.256 130.556 242.458 132.068 242.458C133.566 242.458 134.546 243.298 134.574 244.6H133.314C133.286 243.914 132.824 243.48 132.026 243.48C131.2 243.48 130.738 243.844 130.738 244.474C130.738 244.936 131.074 245.244 131.746 245.412L132.95 245.706C134.112 245.986 134.686 246.518 134.686 247.54C134.686 248.842 133.566 249.668 131.942 249.668C130.332 249.668 129.31 248.814 129.31 247.512ZM135.697 246.084C135.697 243.942 137.055 242.458 139.057 242.458C140.779 242.458 141.983 243.438 142.221 244.964H140.905C140.681 244.096 139.981 243.634 139.099 243.634C137.853 243.634 136.999 244.586 136.999 246.07C136.999 247.54 137.797 248.492 139.043 248.492C139.981 248.492 140.681 248.002 140.919 247.19H142.235C141.969 248.674 140.695 249.668 139.043 249.668C137.027 249.668 135.697 248.24 135.697 246.084ZM147.544 242.598V243.802H146.956C145.71 243.802 144.94 244.558 144.94 245.874V249.5H143.624V242.668H144.856L144.94 243.704C145.22 242.99 145.906 242.514 146.844 242.514C147.082 242.514 147.278 242.542 147.544 242.598ZM149.422 241.03C148.946 241.03 148.554 240.638 148.554 240.162C148.554 239.672 148.946 239.294 149.422 239.294C149.898 239.294 150.29 239.672 150.29 240.162C150.29 240.638 149.898 241.03 149.422 241.03ZM148.778 249.5V242.654H150.094V249.5H148.778ZM153.195 249.5H152.005V239.196H153.321V243.83C153.769 242.934 154.693 242.458 155.813 242.458C157.773 242.458 158.949 243.998 158.949 246.112C158.949 248.184 157.717 249.668 155.729 249.668C154.651 249.668 153.741 249.192 153.293 248.254L153.195 249.5ZM153.335 246.056C153.335 247.484 154.147 248.478 155.491 248.478C156.835 248.478 157.633 247.47 157.633 246.056C157.633 244.656 156.835 243.648 155.491 243.648C154.147 243.648 153.335 244.656 153.335 246.056ZM163.353 249.668C161.337 249.668 159.951 248.212 159.951 246.084C159.951 243.942 161.309 242.458 163.297 242.458C165.243 242.458 166.517 243.802 166.517 245.832V246.322L161.225 246.336C161.323 247.778 162.079 248.576 163.381 248.576C164.403 248.576 165.075 248.156 165.299 247.372H166.531C166.195 248.842 165.047 249.668 163.353 249.668ZM163.297 243.564C162.149 243.564 161.421 244.25 161.253 245.454H165.201C165.201 244.32 164.459 243.564 163.297 243.564ZM173.747 249.5H172.431V243.76H171.087V242.654H172.431V240.512H173.747V242.654H175.091V243.76H173.747V249.5ZM175.756 246.07C175.756 243.956 177.268 242.472 179.326 242.472C181.37 242.472 182.882 243.956 182.882 246.07C182.882 248.184 181.37 249.668 179.326 249.668C177.268 249.668 175.756 248.184 175.756 246.07ZM177.086 246.07C177.086 247.498 177.996 248.492 179.326 248.492C180.642 248.492 181.566 247.498 181.566 246.07C181.566 244.642 180.642 243.648 179.326 243.648C177.996 243.648 177.086 244.642 177.086 246.07ZM189.763 249.5H188.391V239.378H189.763L194.943 247.204V239.378H196.315V249.5H194.943L189.763 241.674V249.5ZM201.402 249.668C199.386 249.668 198 248.212 198 246.084C198 243.942 199.358 242.458 201.346 242.458C203.292 242.458 204.566 243.802 204.566 245.832V246.322L199.274 246.336C199.372 247.778 200.128 248.576 201.43 248.576C202.452 248.576 203.124 248.156 203.348 247.372H204.58C204.244 248.842 203.096 249.668 201.402 249.668ZM201.346 243.564C200.198 243.564 199.47 244.25 199.302 245.454H203.25C203.25 244.32 202.508 243.564 201.346 243.564ZM207.274 249.5L205.034 242.654H206.392L207.526 246.21C207.68 246.714 207.82 247.232 207.946 247.834C208.058 247.232 208.24 246.658 208.394 246.21L209.542 242.654H210.886L212.02 246.21C212.132 246.546 212.356 247.344 212.468 247.834C212.58 247.288 212.706 246.812 212.902 246.21L214.05 242.654H215.422L213.084 249.5H211.838L210.648 245.832C210.424 245.146 210.284 244.614 210.214 244.236C210.144 244.572 210.018 245.02 209.766 245.846L208.576 249.5H207.274ZM215.894 247.512H217.154C217.154 248.212 217.686 248.632 218.554 248.632C219.478 248.632 220.01 248.254 220.01 247.624C220.01 247.162 219.786 246.882 219.072 246.7L217.868 246.42C216.65 246.126 216.076 245.524 216.076 244.516C216.076 243.256 217.14 242.458 218.652 242.458C220.15 242.458 221.13 243.298 221.158 244.6H219.898C219.87 243.914 219.408 243.48 218.61 243.48C217.784 243.48 217.322 243.844 217.322 244.474C217.322 244.936 217.658 245.244 218.33 245.412L219.534 245.706C220.696 245.986 221.27 246.518 221.27 247.54C221.27 248.842 220.15 249.668 218.526 249.668C216.916 249.668 215.894 248.814 215.894 247.512ZM224.073 249.5H222.757V239.196H224.073V249.5ZM228.965 249.668C226.949 249.668 225.563 248.212 225.563 246.084C225.563 243.942 226.921 242.458 228.909 242.458C230.855 242.458 232.129 243.802 232.129 245.832V246.322L226.837 246.336C226.935 247.778 227.691 248.576 228.993 248.576C230.015 248.576 230.687 248.156 230.911 247.372H232.143C231.807 248.842 230.659 249.668 228.965 249.668ZM228.909 243.564C227.761 243.564 227.033 244.25 226.865 245.454H230.813C230.813 244.32 230.071 243.564 228.909 243.564ZM235.462 249.5H234.146V243.76H232.802V242.654H234.146V240.512H235.462V242.654H236.806V243.76H235.462V249.5ZM240.042 249.5H238.726V243.76H237.382V242.654H238.726V240.512H240.042V242.654H241.386V243.76H240.042V249.5ZM245.453 249.668C243.437 249.668 242.051 248.212 242.051 246.084C242.051 243.942 243.409 242.458 245.397 242.458C247.343 242.458 248.617 243.802 248.617 245.832V246.322L243.325 246.336C243.423 247.778 244.179 248.576 245.481 248.576C246.503 248.576 247.175 248.156 247.399 247.372H248.631C248.295 248.842 247.147 249.668 245.453 249.668ZM245.397 243.564C244.249 243.564 243.521 244.25 243.353 245.454H247.301C247.301 244.32 246.559 243.564 245.397 243.564ZM254.007 242.598V243.802H253.419C252.173 243.802 251.403 244.558 251.403 245.874V249.5H250.087V242.668H251.319L251.403 243.704C251.683 242.99 252.369 242.514 253.307 242.514C253.545 242.514 253.741 242.542 254.007 242.598Z" fill="black"/>
<path d="M35.6 65.7467C27.8667 65.72 24.2133 63.32 24.4 57.5067H31.04C31.12 59.0267 32.4 59.96 35.6 59.9867C38.4267 60.0133 39.7333 59.2133 39.7333 58.1733C39.7333 57.4533 39.3333 56.7067 37.1467 56.3867L34.2667 55.9333C30.0267 55.24 24.9333 54.7333 24.9333 49C24.9333 44.5733 28.5333 41.8533 35.6533 41.8533C42.08 41.8533 46.56 43.64 46.4267 50.04H39.84C39.5733 48.5467 38.32 47.6133 35.4933 47.6133C33.04 47.6133 32.0267 48.36 32.0267 49.3733C32.0267 50.0133 32.4267 50.7867 34.1333 51.0533L36.5067 51.4533C40.96 52.2 47.0667 52.3333 47.0667 58.4667C47.0667 63.3467 43.28 65.7733 35.6 65.7467ZM71.0121 42.6V48.76H62.9587V65H55.5721V48.76H47.5188V42.6H71.0121ZM86.6146 65L85.6279 62.04H76.0279L75.0413 65H67.4146L75.6546 42.6H86.0013L94.2413 65H86.6146ZM77.8413 56.5733H83.8146L81.4679 49.5333H80.1879L77.8413 56.5733ZM114.738 42.6L105.565 58.04V65H98.1779V58.0133L89.0312 42.6H96.7913L101.591 51.0267H102.178L106.978 42.6H114.738ZM133.94 65.7467C126.233 65.7467 122.34 62.4667 122.34 55.24V42.6H129.78V55.0533C129.78 57.8267 131.006 59.56 133.94 59.56C136.873 59.56 138.153 57.8267 138.153 55.0533V42.6H145.54V55.1867C145.54 62.4667 141.646 65.7467 133.94 65.7467ZM147.402 65V42.6H160.122C166.229 42.6 169.855 45.32 169.855 51.3467C169.855 57.3733 166.229 60.0933 160.149 60.0933H154.789V65H147.402ZM154.789 53.96H159.482C161.269 53.96 162.415 53.08 162.415 51.3467C162.415 49.6133 161.269 48.7333 159.509 48.7333H154.789V53.96ZM194.293 42.6V48.76H186.24V65H178.853V48.76H170.8V42.6H194.293ZM207.133 65.7467C199.426 65.7467 194.44 60.9733 194.44 53.8C194.44 46.6267 199.426 41.8533 207.133 41.8533C214.84 41.8533 219.826 46.6267 219.826 53.8C219.826 60.9733 214.84 65.7467 207.133 65.7467ZM207.133 59.3733C210.066 59.3733 212.493 57.3467 212.493 53.8C212.493 50.2533 210.066 48.2267 207.133 48.2267C204.2 48.2267 201.773 50.2533 201.773 53.8C201.773 57.3467 204.2 59.3733 207.133 59.3733ZM239.499 42.6C248.619 42.6 251.819 47.3467 251.819 53.8C251.819 60.2267 248.619 65 239.499 65H228.246V42.6H239.499ZM239.499 58.8133C242.379 58.8133 244.406 57.3733 244.406 53.8C244.406 50.2 242.379 48.7867 239.499 48.7867H235.659V58.8133H239.499ZM269.708 65L268.722 62.04H259.122L258.135 65H250.508L258.748 42.6H269.095L277.335 65H269.708ZM260.935 56.5733H266.908L264.562 49.5333H263.282L260.935 56.5733ZM297.231 42.6V48.76H289.177V65H281.791V48.76H273.738V42.6H297.231ZM298.965 65V42.6H319.151V48.52H306.351V51.3733H318.671V56.2267H306.351V59.08H319.151V65H298.965ZM43.3333 100L42.3467 97.04H32.7467L31.76 100H24.1333L32.3733 77.6H42.72L50.96 100H43.3333ZM34.56 91.5733H40.5333L38.1867 84.5333H36.9067L34.56 91.5733ZM71.6004 88.4533C73.7604 89.5467 75.0671 91.12 75.0671 93.68C75.0671 97.28 72.5338 100 65.5204 100H52.0271V77.6H65.8938C72.6671 77.6 74.4804 80.5867 74.4804 83.5467C74.4804 86.08 73.1737 87.1733 71.6004 88.0267V88.4533ZM65.1204 83.2533H59.4138V86.6133H65.1204C66.8538 86.6133 67.4137 85.76 67.4137 84.96C67.4137 84.1067 66.8538 83.2533 65.1204 83.2533ZM65.2804 94.3467C67.0138 94.3467 67.6004 93.28 67.6004 92.4533C67.6004 91.6 67.0138 90.64 65.2804 90.64H59.4138V94.3467H65.2804ZM88.6642 100.747C80.9575 100.747 75.9708 95.9733 75.9708 88.8C75.9708 81.6267 80.9575 76.8533 88.6642 76.8533C96.3708 76.8533 101.358 81.6267 101.358 88.8C101.358 95.9733 96.3708 100.747 88.6642 100.747ZM88.6642 94.3733C91.5975 94.3733 94.0242 92.3467 94.0242 88.8C94.0242 85.2533 91.5975 83.2267 88.6642 83.2267C85.7308 83.2267 83.3042 85.2533 83.3042 88.8C83.3042 92.3467 85.7308 94.3733 88.6642 94.3733ZM114.44 100.747C106.733 100.747 102.84 97.4667 102.84 90.24V77.6H110.28V90.0533C110.28 92.8267 111.506 94.56 114.44 94.56C117.373 94.56 118.653 92.8267 118.653 90.0533V77.6H126.04V90.1867C126.04 97.4667 122.146 100.747 114.44 100.747ZM151.262 77.6V83.76H143.209V100H135.822V83.76H127.769V77.6H151.262ZM172.227 100.747C164.52 100.747 159.533 95.9733 159.533 88.8C159.533 81.6267 164.52 76.8533 172.227 76.8533C179.933 76.8533 184.92 81.6267 184.92 88.8C184.92 95.9733 179.933 100.747 172.227 100.747ZM172.227 94.3733C175.16 94.3733 177.587 92.3467 177.587 88.8C177.587 85.2533 175.16 83.2267 172.227 83.2267C169.293 83.2267 166.867 85.2533 166.867 88.8C166.867 92.3467 169.293 94.3733 172.227 94.3733ZM198.002 100.747C190.295 100.747 186.402 97.4667 186.402 90.24V77.6H193.842V90.0533C193.842 92.8267 195.069 94.56 198.002 94.56C200.935 94.56 202.215 92.8267 202.215 90.0533V77.6H209.602V90.1867C209.602 97.4667 205.709 100.747 198.002 100.747ZM234.745 100H227.491L224.451 94.2133H218.851V100H211.465V77.6H224.291C230.505 77.6 233.998 80.2667 233.998 86.16C233.998 89.1733 232.638 91.3067 230.745 92.64L234.745 100ZM218.851 83.7333V88.6933H223.785C225.651 88.6933 226.611 87.7867 226.611 86.2133C226.611 84.64 225.651 83.7333 223.785 83.7333H218.851ZM24.9333 135V112.6H32.32V128.84H44.2667V135H24.9333ZM64.2396 135L63.2529 132.04H53.6529L52.6663 135H45.0396L53.2796 112.6H63.6263L71.8663 135H64.2396ZM55.4663 126.573H61.4396L59.0929 119.533H57.8129L55.4663 126.573ZM91.7621 112.6V118.76H83.7087V135H76.3221V118.76H68.2688V112.6H91.7621ZM93.4958 135V112.6H113.683V118.52H100.883V121.373H113.203V126.227H100.883V129.08H113.683V135H93.4958ZM126.225 135.747C118.492 135.72 114.838 133.32 115.025 127.507H121.665C121.745 129.027 123.025 129.96 126.225 129.987C129.052 130.013 130.358 129.213 130.358 128.173C130.358 127.453 129.958 126.707 127.772 126.387L124.892 125.933C120.652 125.24 115.558 124.733 115.558 119C115.558 114.573 119.158 111.853 126.278 111.853C132.705 111.853 137.185 113.64 137.052 120.04H130.465C130.198 118.547 128.945 117.613 126.118 117.613C123.665 117.613 122.652 118.36 122.652 119.373C122.652 120.013 123.052 120.787 124.758 121.053L127.132 121.453C131.585 122.2 137.692 122.333 137.692 128.467C137.692 133.347 133.905 135.773 126.225 135.747ZM161.637 112.6V118.76H153.584V135H146.197V118.76H138.144V112.6H161.637ZM182.602 135.747C174.895 135.747 169.908 130.973 169.908 123.8C169.908 116.627 174.895 111.853 182.602 111.853C190.308 111.853 195.295 116.627 195.295 123.8C195.295 130.973 190.308 135.747 182.602 135.747ZM182.602 129.373C185.535 129.373 187.962 127.347 187.962 123.8C187.962 120.253 185.535 118.227 182.602 118.227C179.668 118.227 177.242 120.253 177.242 123.8C177.242 127.347 179.668 129.373 182.602 129.373ZM196.777 135V112.6H216.91V118.76H204.164V121.8H216.35V127.133H204.164V135H196.777ZM218.777 135V112.6H238.91V118.76H226.164V121.8H238.35V127.133H226.164V135H218.777ZM240.777 135V112.6H260.964V118.52H248.164V121.373H260.484V126.227H248.164V129.08H260.964V135H240.777ZM286.12 135H278.866L275.826 129.213H270.226V135H262.84V112.6H275.666C281.88 112.6 285.373 115.267 285.373 121.16C285.373 124.173 284.013 126.307 282.12 127.64L286.12 135ZM270.226 118.733V123.693H275.16C277.026 123.693 277.986 122.787 277.986 121.213C277.986 119.64 277.026 118.733 275.16 118.733H270.226ZM297.444 135.747C289.71 135.72 286.057 133.32 286.244 127.507H292.884C292.964 129.027 294.244 129.96 297.444 129.987C300.27 130.013 301.577 129.213 301.577 128.173C301.577 127.453 301.177 126.707 298.99 126.387L296.11 125.933C291.87 125.24 286.777 124.733 286.777 119C286.777 114.573 290.377 111.853 297.497 111.853C303.924 111.853 308.404 113.64 308.27 120.04H301.684C301.417 118.547 300.164 117.613 297.337 117.613C294.884 117.613 293.87 118.36 293.87 119.373C293.87 120.013 294.27 120.787 295.977 121.053L298.35 121.453C302.804 122.2 308.91 122.333 308.91 128.467C308.91 133.347 305.124 135.773 297.444 135.747Z" fill="white"/>
</svg>
