<svg width="1240" height="180" viewBox="0 0 1240 180" fill="none" xmlns="http://www.w3.org/2000/svg">
<rect width="1240" height="180" rx="20" fill="black"/>
<path d="M78.5 85.9333C68.8333 85.9 64.2667 82.9 64.5 75.6333H72.8C72.9 77.5333 74.5 78.7 78.5 78.7333C82.0333 78.7667 83.6667 77.7667 83.6667 76.4667C83.6667 75.5667 83.1667 74.6333 80.4333 74.2333L76.8333 73.6667C71.5333 72.8 65.1667 72.1667 65.1667 65C65.1667 59.4667 69.6667 56.0667 78.5667 56.0667C86.6 56.0667 92.2 58.3 92.0333 66.3H83.8C83.4667 64.4333 81.9 63.2667 78.3667 63.2667C75.3 63.2667 74.0333 64.2 74.0333 65.4667C74.0333 66.2667 74.5333 67.2333 76.6667 67.5667L79.6333 68.0667C85.2 69 92.8333 69.1667 92.8333 76.8333C92.8333 82.9333 88.1 85.9667 78.5 85.9333ZM122.765 57V64.7H112.698V85H103.465V64.7H93.3984V57H122.765ZM142.268 85L141.035 81.3H129.035L127.802 85H118.268L128.568 57H141.502L151.802 85H142.268ZM131.302 74.4667H138.768L135.835 65.6667H134.235L131.302 74.4667ZM177.422 57L165.956 76.3V85H156.722V76.2667L145.289 57H154.989L160.989 67.5333H161.722L167.722 57H177.422ZM201.424 85.9333C191.791 85.9333 186.924 81.8333 186.924 72.8V57H196.224V72.5667C196.224 76.0333 197.758 78.2 201.424 78.2C205.091 78.2 206.691 76.0333 206.691 72.5667V57H215.924V72.7333C215.924 81.8333 211.058 85.9333 201.424 85.9333ZM218.253 85V57H234.153C241.786 57 246.319 60.4 246.319 67.9333C246.319 75.4667 241.786 78.8667 234.186 78.8667H227.486V85H218.253ZM227.486 71.2H233.353C235.586 71.2 237.019 70.1 237.019 67.9333C237.019 65.7667 235.586 64.6667 233.386 64.6667H227.486V71.2ZM276.867 57V64.7H266.8V85H257.567V64.7H247.5V57H276.867ZM292.916 85.9333C283.283 85.9333 277.049 79.9667 277.049 71C277.049 62.0333 283.283 56.0667 292.916 56.0667C302.549 56.0667 308.783 62.0333 308.783 71C308.783 79.9667 302.549 85.9333 292.916 85.9333ZM292.916 77.9667C296.583 77.9667 299.616 75.4333 299.616 71C299.616 66.5667 296.583 64.0333 292.916 64.0333C289.249 64.0333 286.216 66.5667 286.216 71C286.216 75.4333 289.249 77.9667 292.916 77.9667ZM333.374 57C344.774 57 348.774 62.9333 348.774 71C348.774 79.0333 344.774 85 333.374 85H319.307V57H333.374ZM333.374 77.2667C336.974 77.2667 339.507 75.4667 339.507 71C339.507 66.5 336.974 64.7333 333.374 64.7333H328.574V77.2667H333.374ZM371.135 85L369.902 81.3H357.902L356.669 85H347.135L357.435 57H370.369L380.669 85H371.135ZM360.169 74.4667H367.635L364.702 65.6667H363.102L360.169 74.4667ZM405.539 57V64.7H395.472V85H386.239V64.7H376.172V57H405.539ZM407.706 85V57H432.939V64.4H416.939V67.9667H432.339V74.0333H416.939V77.6H432.939V85H407.706ZM466.956 85L465.722 81.3H453.722L452.489 85H442.956L453.256 57H466.189L476.489 85H466.956ZM455.989 74.4667H463.456L460.522 65.6667H458.922L455.989 74.4667ZM502.29 70.5667C504.99 71.9333 506.623 73.9 506.623 77.1C506.623 81.6 503.456 85 494.69 85H477.823V57H495.156C503.623 57 505.89 60.7333 505.89 64.4333C505.89 67.6 504.256 68.9667 502.29 70.0333V70.5667ZM494.19 64.0667H487.056V68.2667H494.19C496.356 68.2667 497.056 67.2 497.056 66.2C497.056 65.1333 496.356 64.0667 494.19 64.0667ZM494.39 77.9333C496.556 77.9333 497.29 76.6 497.29 75.5667C497.29 74.5 496.556 73.3 494.39 73.3H487.056V77.9333H494.39ZM523.619 85.9333C513.986 85.9333 507.753 79.9667 507.753 71C507.753 62.0333 513.986 56.0667 523.619 56.0667C533.253 56.0667 539.486 62.0333 539.486 71C539.486 79.9667 533.253 85.9333 523.619 85.9333ZM523.619 77.9667C527.286 77.9667 530.319 75.4333 530.319 71C530.319 66.5667 527.286 64.0333 523.619 64.0333C519.953 64.0333 516.919 66.5667 516.919 71C516.919 75.4333 519.953 77.9667 523.619 77.9667ZM555.839 85.9333C546.205 85.9333 541.339 81.8333 541.339 72.8V57H550.639V72.5667C550.639 76.0333 552.172 78.2 555.839 78.2C559.505 78.2 561.105 76.0333 561.105 72.5667V57H570.339V72.7333C570.339 81.8333 565.472 85.9333 555.839 85.9333ZM601.867 57V64.7H591.8V85H582.567V64.7H572.5V57H601.867ZM80.5333 130.933C70.9 130.933 64.6667 124.967 64.6667 116C64.6667 107.033 70.9 101.067 80.5333 101.067C90.1667 101.067 96.4 107.033 96.4 116C96.4 124.967 90.1667 130.933 80.5333 130.933ZM80.5333 122.967C84.2 122.967 87.2333 120.433 87.2333 116C87.2333 111.567 84.2 109.033 80.5333 109.033C76.8667 109.033 73.8333 111.567 73.8333 116C73.8333 120.433 76.8667 122.967 80.5333 122.967ZM112.753 130.933C103.119 130.933 98.2526 126.833 98.2526 117.8V102H107.553V117.567C107.553 121.033 109.086 123.2 112.753 123.2C116.419 123.2 118.019 121.033 118.019 117.567V102H127.253V117.733C127.253 126.833 122.386 130.933 112.753 130.933ZM158.681 130H149.614L145.814 122.767H138.814V130H129.581V102H145.614C153.381 102 157.747 105.333 157.747 112.7C157.747 116.467 156.047 119.133 153.681 120.8L158.681 130ZM138.814 109.667V115.867H144.981C147.314 115.867 148.514 114.733 148.514 112.767C148.514 110.8 147.314 109.667 144.981 109.667H138.814ZM169.19 130V102H178.423V122.3H193.357V130H169.19ZM218.323 130L217.09 126.3H205.09L203.856 130H194.323L204.623 102H217.556L227.856 130H218.323ZM207.356 119.467H214.823L211.89 110.667H210.29L207.356 119.467ZM252.726 102V109.7H242.659V130H233.426V109.7H223.359V102H252.726ZM254.893 130V102H280.127V109.4H264.127V112.967H279.527V119.033H264.127V122.6H280.127V130H254.893ZM295.805 130.933C286.138 130.9 281.571 127.9 281.805 120.633H290.105C290.205 122.533 291.805 123.7 295.805 123.733C299.338 123.767 300.971 122.767 300.971 121.467C300.971 120.567 300.471 119.633 297.738 119.233L294.138 118.667C288.838 117.8 282.471 117.167 282.471 110C282.471 104.467 286.971 101.067 295.871 101.067C303.905 101.067 309.505 103.3 309.338 111.3H301.105C300.771 109.433 299.205 108.267 295.671 108.267C292.605 108.267 291.338 109.2 291.338 110.467C291.338 111.267 291.838 112.233 293.971 112.567L296.938 113.067C302.505 114 310.138 114.167 310.138 121.833C310.138 127.933 305.405 130.967 295.805 130.933ZM340.07 102V109.7H330.003V130H320.77V109.7H310.703V102H340.07ZM366.276 130.933C356.642 130.933 350.409 124.967 350.409 116C350.409 107.033 356.642 101.067 366.276 101.067C375.909 101.067 382.142 107.033 382.142 116C382.142 124.967 375.909 130.933 366.276 130.933ZM366.276 122.967C369.942 122.967 372.976 120.433 372.976 116C372.976 111.567 369.942 109.033 366.276 109.033C362.609 109.033 359.576 111.567 359.576 116C359.576 120.433 362.609 122.967 366.276 122.967ZM383.995 130V102H409.161V109.7H393.228V113.5H408.461V120.167H393.228V130H383.995ZM411.495 130V102H436.661V109.7H420.728V113.5H435.961V120.167H420.728V130H411.495ZM438.995 130V102H464.228V109.4H448.228V112.967H463.628V119.033H448.228V122.6H464.228V130H438.995ZM495.673 130H486.606L482.806 122.767H475.806V130H466.573V102H482.606C490.373 102 494.74 105.333 494.74 112.7C494.74 116.467 493.04 119.133 490.673 120.8L495.673 130ZM475.806 109.667V115.867H481.973C484.306 115.867 485.506 114.733 485.506 112.767C485.506 110.8 484.306 109.667 481.973 109.667H475.806ZM509.828 130.933C500.161 130.9 495.595 127.9 495.828 120.633H504.128C504.228 122.533 505.828 123.7 509.828 123.733C513.361 123.767 514.995 122.767 514.995 121.467C514.995 120.567 514.495 119.633 511.761 119.233L508.161 118.667C502.861 117.8 496.495 117.167 496.495 110C496.495 104.467 500.995 101.067 509.895 101.067C517.928 101.067 523.528 103.3 523.361 111.3H515.128C514.795 109.433 513.228 108.267 509.695 108.267C506.628 108.267 505.361 109.2 505.361 110.467C505.361 111.267 505.861 112.233 507.995 112.567L510.961 113.067C516.528 114 524.161 114.167 524.161 121.833C524.161 127.933 519.428 130.967 509.828 130.933Z" fill="white"/>
<rect x="827" y="36" width="349" height="48" rx="24" fill="white"/>
<path d="M864 52.125H846C845.702 52.125 845.415 52.2435 845.205 52.4545C844.994 52.6655 844.875 52.9516 844.875 53.25V66C844.875 66.4973 845.073 66.9742 845.424 67.3258C845.776 67.6775 846.253 67.875 846.75 67.875H863.25C863.747 67.875 864.224 67.6775 864.576 67.3258C864.927 66.9742 865.125 66.4973 865.125 66V53.25C865.125 52.9516 865.006 52.6655 864.795 52.4545C864.585 52.2435 864.298 52.125 864 52.125ZM855 59.9738L848.892 54.375H861.108L855 59.9738ZM851.699 60L847.125 64.1925V55.8075L851.699 60ZM853.364 61.5262L854.24 62.3297C854.447 62.52 854.718 62.6255 855 62.6255C855.282 62.6255 855.553 62.52 855.76 62.3297L856.636 61.5262L861.108 65.625H848.892L853.364 61.5262ZM858.301 60L862.875 55.8075V64.1925L858.301 60Z" fill="black" fill-opacity="0.4"/>
<path d="M887.256 65H880.392V53.544H887.24V54.6H881.544V58.728H886.712V59.768H881.544V63.944H887.256V65ZM890.459 65H889.355V57.256H890.315L890.475 58.6C890.987 57.608 892.011 57.048 893.131 57.048C895.259 57.048 896.139 58.312 896.139 60.264V65H895.035V60.504C895.035 58.696 894.219 58.056 892.939 58.056C891.355 58.056 890.459 59.208 890.459 60.952V65ZM900.116 65H899.028V58.184H897.476V57.256H899.028V54.808H900.116V57.256H901.668V58.184H900.116V65ZM906.275 65.192C904.003 65.192 902.483 63.56 902.483 61.128C902.483 58.712 903.987 57.048 906.195 57.048C908.291 57.048 909.715 58.536 909.715 60.728V61.272H903.555C903.635 63.16 904.627 64.248 906.291 64.248C907.555 64.248 908.371 63.704 908.659 62.68H909.715C909.299 64.312 908.099 65.192 906.275 65.192ZM906.195 57.992C904.739 57.992 903.779 58.952 903.587 60.472H908.611C908.611 58.984 907.651 57.992 906.195 57.992ZM915.528 57.16V58.152H914.92C913.496 58.152 912.584 59.112 912.584 60.584V65H911.48V57.256H912.52L912.6 58.456C912.904 57.624 913.72 57.08 914.808 57.08C915.048 57.08 915.256 57.096 915.528 57.16ZM920.649 68.376V67.464H921.497C922.169 67.464 922.841 67.416 923.225 66.376L923.561 65.464L920.425 57.256H921.593L924.089 64.008L926.537 57.256H927.673L924.121 66.776C923.673 67.992 922.921 68.488 921.817 68.488C921.353 68.488 921.001 68.456 920.649 68.376ZM928.155 61.128C928.155 58.76 929.819 57.048 932.091 57.048C934.363 57.048 936.027 58.76 936.027 61.128C936.027 63.48 934.363 65.192 932.091 65.192C929.819 65.192 928.155 63.48 928.155 61.128ZM929.275 61.112C929.275 62.936 930.427 64.2 932.091 64.2C933.739 64.2 934.907 62.936 934.907 61.112C934.907 59.32 933.739 58.04 932.091 58.04C930.427 58.04 929.275 59.32 929.275 61.112ZM943.045 57.256H944.149V65H943.189L943.045 63.688C942.613 64.584 941.541 65.192 940.325 65.192C938.501 65.192 937.509 63.944 937.509 62.056V57.24H938.629V61.704C938.629 63.544 939.445 64.2 940.677 64.2C942.165 64.2 943.045 63.208 943.045 61.368V57.256ZM950.497 57.16V58.152H949.889C948.465 58.152 947.553 59.112 947.553 60.584V65H946.449V57.256H947.489L947.569 58.456C947.873 57.624 948.689 57.08 949.777 57.08C950.017 57.08 950.225 57.096 950.497 57.16ZM959.65 65.192C957.378 65.192 955.858 63.56 955.858 61.128C955.858 58.712 957.362 57.048 959.57 57.048C961.666 57.048 963.09 58.536 963.09 60.728V61.272H956.93C957.01 63.16 958.002 64.248 959.666 64.248C960.93 64.248 961.746 63.704 962.034 62.68H963.09C962.674 64.312 961.474 65.192 959.65 65.192ZM959.57 57.992C958.114 57.992 957.154 58.952 956.962 60.472H961.986C961.986 58.984 961.026 57.992 959.57 57.992ZM965.959 65H964.855V57.256H965.815L965.943 58.36C966.327 57.544 967.191 57.048 968.279 57.048C969.495 57.048 970.407 57.688 970.775 58.696C971.127 57.688 972.071 57.048 973.319 57.048C974.999 57.048 976.103 58.136 976.103 59.928V65H975.031V60.152C975.031 58.824 974.295 58.04 973.111 58.04C971.815 58.04 971.047 59.016 971.047 60.216V65H969.959V60.136C969.959 58.824 969.207 58.056 968.039 58.056C966.743 58.056 965.959 59.016 965.959 60.2V65ZM980.548 65.192C978.9 65.192 977.924 64.264 977.924 62.904C977.924 61.48 979.012 60.584 980.82 60.44L983.38 60.232V59.976C983.38 58.456 982.468 57.976 981.332 57.976C979.988 57.976 979.188 58.584 979.188 59.624H978.18C978.18 58.056 979.46 57.048 981.364 57.048C983.156 57.048 984.468 57.944 984.468 59.992V65H983.54L983.396 63.64C982.916 64.616 981.86 65.192 980.548 65.192ZM980.804 64.296C982.436 64.296 983.38 63.16 983.38 61.48V61.064L981.092 61.24C979.636 61.368 979.044 62.008 979.044 62.872C979.044 63.816 979.748 64.296 980.804 64.296ZM987.227 55.128C986.779 55.128 986.411 54.76 986.411 54.312C986.411 53.864 986.779 53.48 987.227 53.48C987.675 53.48 988.059 53.864 988.059 54.312C988.059 54.76 987.675 55.128 987.227 55.128ZM986.683 65V57.256H987.787V65H986.683ZM991.242 65H990.138V53.336H991.242V65ZM1000.25 65.192C998.603 65.192 997.627 64.264 997.627 62.904C997.627 61.48 998.715 60.584 1000.52 60.44L1003.08 60.232V59.976C1003.08 58.456 1002.17 57.976 1001.04 57.976C999.691 57.976 998.891 58.584 998.891 59.624H997.883C997.883 58.056 999.163 57.048 1001.07 57.048C1002.86 57.048 1004.17 57.944 1004.17 59.992V65H1003.24L1003.1 63.64C1002.62 64.616 1001.56 65.192 1000.25 65.192ZM1000.51 64.296C1002.14 64.296 1003.08 63.16 1003.08 61.48V61.064L1000.8 61.24C999.339 61.368 998.747 62.008 998.747 62.872C998.747 63.816 999.451 64.296 1000.51 64.296ZM1009.43 65.192C1007.17 65.192 1005.84 63.464 1005.84 61.144C1005.84 58.808 1007.17 57.048 1009.47 57.048C1010.75 57.048 1011.78 57.608 1012.32 58.728V53.336H1013.43V65H1012.47L1012.35 63.416C1011.81 64.616 1010.72 65.192 1009.43 65.192ZM1009.62 64.184C1011.31 64.184 1012.31 62.904 1012.31 61.112C1012.31 59.336 1011.31 58.04 1009.62 58.04C1007.94 58.04 1006.96 59.336 1006.96 61.112C1006.96 62.904 1007.94 64.184 1009.62 64.184ZM1018.77 65.192C1016.51 65.192 1015.19 63.464 1015.19 61.144C1015.19 58.808 1016.51 57.048 1018.82 57.048C1020.1 57.048 1021.12 57.608 1021.67 58.728V53.336H1022.77V65H1021.81L1021.7 63.416C1021.15 64.616 1020.07 65.192 1018.77 65.192ZM1018.96 64.184C1020.66 64.184 1021.65 62.904 1021.65 61.112C1021.65 59.336 1020.66 58.04 1018.96 58.04C1017.28 58.04 1016.31 59.336 1016.31 61.112C1016.31 62.904 1017.28 64.184 1018.96 64.184ZM1029.12 57.16V58.152H1028.51C1027.09 58.152 1026.18 59.112 1026.18 60.584V65H1025.07V57.256H1026.11L1026.19 58.456C1026.5 57.624 1027.31 57.08 1028.4 57.08C1028.64 57.08 1028.85 57.096 1029.12 57.16ZM1033.54 65.192C1031.27 65.192 1029.75 63.56 1029.75 61.128C1029.75 58.712 1031.25 57.048 1033.46 57.048C1035.56 57.048 1036.98 58.536 1036.98 60.728V61.272H1030.82C1030.9 63.16 1031.89 64.248 1033.56 64.248C1034.82 64.248 1035.64 63.704 1035.92 62.68H1036.98C1036.56 64.312 1035.36 65.192 1033.54 65.192ZM1033.46 57.992C1032 57.992 1031.04 58.952 1030.85 60.472H1035.88C1035.88 58.984 1034.92 57.992 1033.46 57.992ZM1038.09 62.824H1039.15C1039.15 63.72 1039.82 64.28 1040.91 64.28C1042.11 64.28 1042.81 63.768 1042.81 62.936C1042.81 62.296 1042.49 61.928 1041.58 61.704L1040.25 61.368C1038.91 61.032 1038.25 60.328 1038.25 59.272C1038.25 57.912 1039.39 57.048 1041.05 57.048C1042.68 57.048 1043.74 57.944 1043.79 59.384H1042.71C1042.68 58.488 1042.06 57.96 1041.02 57.96C1039.93 57.96 1039.32 58.424 1039.32 59.256C1039.32 59.848 1039.74 60.264 1040.59 60.472L1041.91 60.808C1043.26 61.144 1043.87 61.768 1043.87 62.888C1043.87 64.28 1042.68 65.192 1040.92 65.192C1039.18 65.192 1038.09 64.264 1038.09 62.824ZM1045.03 62.824H1046.08C1046.08 63.72 1046.76 64.28 1047.84 64.28C1049.04 64.28 1049.75 63.768 1049.75 62.936C1049.75 62.296 1049.43 61.928 1048.52 61.704L1047.19 61.368C1045.84 61.032 1045.19 60.328 1045.19 59.272C1045.19 57.912 1046.32 57.048 1047.99 57.048C1049.62 57.048 1050.68 57.944 1050.72 59.384H1049.65C1049.62 58.488 1049 57.96 1047.96 57.96C1046.87 57.96 1046.26 58.424 1046.26 59.256C1046.26 59.848 1046.68 60.264 1047.52 60.472L1048.85 60.808C1050.2 61.144 1050.8 61.768 1050.8 62.888C1050.8 64.28 1049.62 65.192 1047.86 65.192C1046.12 65.192 1045.03 64.264 1045.03 62.824Z" fill="black" fill-opacity="0.4"/>
<rect x="827" y="98" width="349" height="46" rx="23" fill="white"/>
<path d="M916.172 118.552C916.172 116.568 917.772 115.224 920.156 115.224C922.364 115.224 923.788 116.456 923.916 118.456H922.332C922.252 117.304 921.436 116.632 920.14 116.632C918.684 116.632 917.74 117.368 917.74 118.504C917.74 119.432 918.268 119.992 919.356 120.248L921.26 120.696C923.148 121.128 924.108 122.152 924.108 123.784C924.108 125.864 922.492 127.192 920.028 127.192C917.676 127.192 916.108 125.96 916.012 123.976H917.612C917.644 125.08 918.572 125.784 920.028 125.784C921.564 125.784 922.54 125.064 922.54 123.912C922.54 123 922.044 122.424 920.94 122.168L919.036 121.736C917.148 121.304 916.172 120.216 916.172 118.552ZM931.23 119.176H932.718V127H931.374L931.214 125.816C930.766 126.632 929.726 127.192 928.574 127.192C926.75 127.192 925.726 125.96 925.726 124.04V119.176H927.23V123.544C927.23 125.224 927.95 125.864 929.102 125.864C930.478 125.864 931.23 124.984 931.23 123.304V119.176ZM936.261 127H934.901V115.224H936.405V120.52C936.917 119.496 937.973 118.952 939.253 118.952C941.493 118.952 942.837 120.712 942.837 123.128C942.837 125.496 941.429 127.192 939.157 127.192C937.924 127.192 936.885 126.648 936.373 125.576L936.261 127ZM936.421 123.064C936.421 124.696 937.349 125.832 938.885 125.832C940.421 125.832 941.333 124.68 941.333 123.064C941.333 121.464 940.421 120.312 938.885 120.312C937.349 120.312 936.421 121.464 936.421 123.064ZM943.854 124.728H945.294C945.294 125.528 945.902 126.008 946.894 126.008C947.95 126.008 948.558 125.576 948.558 124.856C948.558 124.328 948.302 124.008 947.486 123.8L946.11 123.48C944.718 123.144 944.062 122.456 944.062 121.304C944.062 119.864 945.278 118.952 947.006 118.952C948.718 118.952 949.838 119.912 949.87 121.4H948.43C948.398 120.616 947.87 120.12 946.958 120.12C946.014 120.12 945.486 120.536 945.486 121.256C945.486 121.784 945.87 122.136 946.638 122.328L948.014 122.664C949.342 122.984 949.998 123.592 949.998 124.76C949.998 126.248 948.718 127.192 946.862 127.192C945.022 127.192 943.854 126.216 943.854 124.728ZM951.154 123.096C951.154 120.648 952.706 118.952 954.994 118.952C956.962 118.952 958.338 120.072 958.61 121.816H957.106C956.85 120.824 956.05 120.296 955.042 120.296C953.618 120.296 952.642 121.384 952.642 123.08C952.642 124.76 953.554 125.848 954.978 125.848C956.05 125.848 956.85 125.288 957.122 124.36H958.626C958.322 126.056 956.866 127.192 954.978 127.192C952.674 127.192 951.154 125.56 951.154 123.096ZM964.693 119.112V120.488H964.021C962.597 120.488 961.717 121.352 961.717 122.856V127H960.213V119.192H961.621L961.717 120.376C962.037 119.56 962.821 119.016 963.893 119.016C964.165 119.016 964.389 119.048 964.693 119.112ZM966.84 117.32C966.296 117.32 965.848 116.872 965.848 116.328C965.848 115.768 966.296 115.336 966.84 115.336C967.384 115.336 967.832 115.768 967.832 116.328C967.832 116.872 967.384 117.32 966.84 117.32ZM966.104 127V119.176H967.608V127H966.104ZM971.151 127H969.791V115.224H971.295V120.52C971.807 119.496 972.863 118.952 974.143 118.952C976.383 118.952 977.727 120.712 977.727 123.128C977.727 125.496 976.319 127.192 974.047 127.192C972.815 127.192 971.775 126.648 971.263 125.576L971.151 127ZM971.311 123.064C971.311 124.696 972.239 125.832 973.775 125.832C975.311 125.832 976.223 124.68 976.223 123.064C976.223 121.464 975.311 120.312 973.775 120.312C972.239 120.312 971.311 121.464 971.311 123.064ZM982.761 127.192C980.457 127.192 978.873 125.528 978.873 123.096C978.873 120.648 980.425 118.952 982.697 118.952C984.921 118.952 986.377 120.488 986.377 122.808V123.368L980.329 123.384C980.441 125.032 981.305 125.944 982.793 125.944C983.961 125.944 984.729 125.464 984.985 124.568H986.393C986.009 126.248 984.697 127.192 982.761 127.192ZM982.697 120.216C981.385 120.216 980.553 121 980.361 122.376H984.873C984.873 121.08 984.025 120.216 982.697 120.216ZM994.64 127H993.136V120.44H991.6V119.176H993.136V116.728H994.64V119.176H996.176V120.44H994.64V127ZM996.935 123.08C996.935 120.664 998.663 118.968 1001.02 118.968C1003.35 118.968 1005.08 120.664 1005.08 123.08C1005.08 125.496 1003.35 127.192 1001.02 127.192C998.663 127.192 996.935 125.496 996.935 123.08ZM998.455 123.08C998.455 124.712 999.495 125.848 1001.02 125.848C1002.52 125.848 1003.58 124.712 1003.58 123.08C1003.58 121.448 1002.52 120.312 1001.02 120.312C999.495 120.312 998.455 121.448 998.455 123.08ZM1012.94 127H1011.38V115.432H1012.94L1018.86 124.376V115.432H1020.43V127H1018.86L1012.94 118.056V127ZM1026.25 127.192C1023.94 127.192 1022.36 125.528 1022.36 123.096C1022.36 120.648 1023.91 118.952 1026.18 118.952C1028.41 118.952 1029.86 120.488 1029.86 122.808V123.368L1023.81 123.384C1023.93 125.032 1024.79 125.944 1026.28 125.944C1027.45 125.944 1028.21 125.464 1028.47 124.568H1029.88C1029.49 126.248 1028.18 127.192 1026.25 127.192ZM1026.18 120.216C1024.87 120.216 1024.04 121 1023.85 122.376H1028.36C1028.36 121.08 1027.51 120.216 1026.18 120.216ZM1032.96 127L1030.4 119.176H1031.95L1033.24 123.24C1033.42 123.816 1033.58 124.408 1033.72 125.096C1033.85 124.408 1034.06 123.752 1034.24 123.24L1035.55 119.176H1037.08L1038.38 123.24C1038.51 123.624 1038.76 124.536 1038.89 125.096C1039.02 124.472 1039.16 123.928 1039.39 123.24L1040.7 119.176H1042.27L1039.6 127H1038.17L1036.81 122.808C1036.56 122.024 1036.4 121.416 1036.32 120.984C1036.24 121.368 1036.09 121.88 1035.8 122.824L1034.44 127H1032.96ZM1042.81 124.728H1044.25C1044.25 125.528 1044.86 126.008 1045.85 126.008C1046.9 126.008 1047.51 125.576 1047.51 124.856C1047.51 124.328 1047.26 124.008 1046.44 123.8L1045.06 123.48C1043.67 123.144 1043.02 122.456 1043.02 121.304C1043.02 119.864 1044.23 118.952 1045.96 118.952C1047.67 118.952 1048.79 119.912 1048.82 121.4H1047.38C1047.35 120.616 1046.82 120.12 1045.91 120.12C1044.97 120.12 1044.44 120.536 1044.44 121.256C1044.44 121.784 1044.82 122.136 1045.59 122.328L1046.97 122.664C1048.3 122.984 1048.95 123.592 1048.95 124.76C1048.95 126.248 1047.67 127.192 1045.82 127.192C1043.98 127.192 1042.81 126.216 1042.81 124.728ZM1052.16 127H1050.65V115.224H1052.16V127ZM1057.75 127.192C1055.44 127.192 1053.86 125.528 1053.86 123.096C1053.86 120.648 1055.41 118.952 1057.68 118.952C1059.91 118.952 1061.36 120.488 1061.36 122.808V123.368L1055.31 123.384C1055.43 125.032 1056.29 125.944 1057.78 125.944C1058.95 125.944 1059.71 125.464 1059.97 124.568H1061.38C1060.99 126.248 1059.68 127.192 1057.75 127.192ZM1057.68 120.216C1056.37 120.216 1055.54 121 1055.35 122.376H1059.86C1059.86 121.08 1059.01 120.216 1057.68 120.216ZM1065.17 127H1063.67V120.44H1062.13V119.176H1063.67V116.728H1065.17V119.176H1066.71V120.44H1065.17V127ZM1070.41 127H1068.9V120.44H1067.37V119.176H1068.9V116.728H1070.41V119.176H1071.94V120.44H1070.41V127ZM1076.59 127.192C1074.29 127.192 1072.7 125.528 1072.7 123.096C1072.7 120.648 1074.25 118.952 1076.53 118.952C1078.75 118.952 1080.2 120.488 1080.2 122.808V123.368L1074.16 123.384C1074.27 125.032 1075.13 125.944 1076.62 125.944C1077.79 125.944 1078.56 125.464 1078.81 124.568H1080.22C1079.84 126.248 1078.53 127.192 1076.59 127.192ZM1076.53 120.216C1075.21 120.216 1074.38 121 1074.19 122.376H1078.7C1078.7 121.08 1077.85 120.216 1076.53 120.216ZM1086.36 119.112V120.488H1085.69C1084.27 120.488 1083.39 121.352 1083.39 122.856V127H1081.88V119.192H1083.29L1083.39 120.376C1083.71 119.56 1084.49 119.016 1085.56 119.016C1085.84 119.016 1086.06 119.048 1086.36 119.112Z" fill="black"/>
</svg>
