<svg width="295" height="1220" viewBox="0 0 295 1220" fill="none" xmlns="http://www.w3.org/2000/svg">
<rect x="0.5" y="0.5" width="294" height="1219" rx="19.5" stroke="black" stroke-opacity="0.1"/>
<path d="M33.62 35.02H28.18V41H25.62V26.38H34.66V28.74H28.18V32.72H33.62V35.02ZM37.8277 29.14C36.9877 29.14 36.3277 28.48 36.3277 27.66C36.3277 26.84 36.9877 26.2 37.8277 26.2C38.6277 26.2 39.2877 26.84 39.2877 27.66C39.2877 28.48 38.6277 29.14 37.8277 29.14ZM36.6077 41V31.12H39.0477V41H36.6077ZM44.0286 41H41.6086V26.12H44.0286V41ZM49.9481 41H47.5081V33.16H45.6081V31.12H47.5081V28.04H49.9481V31.12H51.8681V33.16H49.9481V41ZM57.7073 41.26C54.7673 41.26 52.7073 39.12 52.7073 36.06C52.7073 32.96 54.7273 30.82 57.6273 30.82C60.5873 30.82 62.4673 32.8 62.4673 35.88V36.62L55.0273 36.64C55.2073 38.38 56.1273 39.26 57.7473 39.26C59.0873 39.26 59.9673 38.74 60.2473 37.8H62.5073C62.0873 39.96 60.2873 41.26 57.7073 41.26ZM57.6473 32.82C56.2073 32.82 55.3273 33.6 55.0873 35.08H60.0473C60.0473 33.72 59.1073 32.82 57.6473 32.82ZM70.6202 31.08V33.34H69.7202C67.9602 33.34 66.8602 34.28 66.8602 36.2V41H64.4202V31.14H66.7202L66.8602 32.58C67.2802 31.6 68.2202 30.94 69.5402 30.94C69.8802 30.94 70.2202 30.98 70.6202 31.08ZM71.5117 38H73.8317C73.8517 38.86 74.4917 39.4 75.6117 39.4C76.7517 39.4 77.3717 38.94 77.3717 38.22C77.3717 37.72 77.1117 37.36 76.2317 37.16L74.4517 36.74C72.6717 36.34 71.8117 35.5 71.8117 33.92C71.8117 31.98 73.4517 30.82 75.7317 30.82C77.9517 30.82 79.4517 32.1 79.4717 34.02H77.1517C77.1317 33.18 76.5717 32.64 75.6317 32.64C74.6717 32.64 74.1117 33.08 74.1117 33.82C74.1117 34.38 74.5517 34.74 75.3917 34.94L77.1717 35.36C78.8317 35.74 79.6717 36.5 79.6717 38.02C79.6717 40.02 77.9717 41.26 75.5317 41.26C73.0717 41.26 71.5117 39.94 71.5117 38Z" fill="black"/>
<path d="M260.125 33.125V41.75C260.125 42.0484 260.006 42.3345 259.795 42.5455C259.585 42.7565 259.298 42.875 259 42.875C258.702 42.875 258.415 42.7565 258.205 42.5455C257.994 42.3345 257.875 42.0484 257.875 41.75V33.125C257.875 32.8266 257.994 32.5405 258.205 32.3295C258.415 32.1185 258.702 32 259 32C259.298 32 259.585 32.1185 259.795 32.3295C260.006 32.5405 260.125 32.8266 260.125 33.125ZM265.75 39.5C265.452 39.5 265.165 39.6185 264.955 39.8295C264.744 40.0405 264.625 40.3266 264.625 40.625V41.75C264.625 42.0484 264.744 42.3345 264.955 42.5455C265.165 42.7565 265.452 42.875 265.75 42.875C266.048 42.875 266.335 42.7565 266.545 42.5455C266.756 42.3345 266.875 42.0484 266.875 41.75V40.625C266.875 40.3266 266.756 40.0405 266.545 39.8295C266.335 39.6185 266.048 39.5 265.75 39.5ZM268 35.75H266.875V25.25C266.875 24.9516 266.756 24.6655 266.545 24.4545C266.335 24.2435 266.048 24.125 265.75 24.125C265.452 24.125 265.165 24.2435 264.955 24.4545C264.744 24.6655 264.625 24.9516 264.625 25.25V35.75H263.5C263.202 35.75 262.915 35.8685 262.705 36.0795C262.494 36.2905 262.375 36.5766 262.375 36.875C262.375 37.1734 262.494 37.4595 262.705 37.6705C262.915 37.8815 263.202 38 263.5 38H268C268.298 38 268.585 37.8815 268.795 37.6705C269.006 37.4595 269.125 37.1734 269.125 36.875C269.125 36.5766 269.006 36.2905 268.795 36.0795C268.585 35.8685 268.298 35.75 268 35.75ZM252.25 36.5C251.952 36.5 251.665 36.6185 251.455 36.8295C251.244 37.0405 251.125 37.3266 251.125 37.625V41.75C251.125 42.0484 251.244 42.3345 251.455 42.5455C251.665 42.7565 251.952 42.875 252.25 42.875C252.548 42.875 252.835 42.7565 253.045 42.5455C253.256 42.3345 253.375 42.0484 253.375 41.75V37.625C253.375 37.3266 253.256 37.0405 253.045 36.8295C252.835 36.6185 252.548 36.5 252.25 36.5ZM254.5 32.75H253.375V25.25C253.375 24.9516 253.256 24.6655 253.045 24.4545C252.835 24.2435 252.548 24.125 252.25 24.125C251.952 24.125 251.665 24.2435 251.455 24.4545C251.244 24.6655 251.125 24.9516 251.125 25.25V32.75H250C249.702 32.75 249.415 32.8685 249.205 33.0795C248.994 33.2905 248.875 33.5766 248.875 33.875C248.875 34.1734 248.994 34.4595 249.205 34.6705C249.415 34.8815 249.702 35 250 35H254.5C254.798 35 255.085 34.8815 255.295 34.6705C255.506 34.4595 255.625 34.1734 255.625 33.875C255.625 33.5766 255.506 33.2905 255.295 33.0795C255.085 32.8685 254.798 32.75 254.5 32.75ZM261.25 28.25H260.125V25.25C260.125 24.9516 260.006 24.6655 259.795 24.4545C259.585 24.2435 259.298 24.125 259 24.125C258.702 24.125 258.415 24.2435 258.205 24.4545C257.994 24.6655 257.875 24.9516 257.875 25.25V28.25H256.75C256.452 28.25 256.165 28.3685 255.955 28.5795C255.744 28.7905 255.625 29.0766 255.625 29.375C255.625 29.6734 255.744 29.9595 255.955 30.1705C256.165 30.3815 256.452 30.5 256.75 30.5H261.25C261.548 30.5 261.835 30.3815 262.045 30.1705C262.256 29.9595 262.375 29.6734 262.375 29.375C262.375 29.0766 262.256 28.7905 262.045 28.5795C261.835 28.3685 261.548 28.25 261.25 28.25Z" fill="black" fill-opacity="0.4"/>
<line x1="24" y1="70.5" x2="271" y2="70.5" stroke="black" stroke-opacity="0.1"/>
<path d="M24.192 98.1V97.044H32.4V98.1H28.864V108.5H27.712V98.1H24.192ZM32.5865 104.788V103.796H37.2265V104.788H32.5865ZM38.7148 106.324H39.7708C39.7708 107.22 40.4428 107.78 41.5308 107.78C42.7308 107.78 43.4348 107.268 43.4348 106.436C43.4348 105.796 43.1148 105.428 42.2028 105.204L40.8748 104.868C39.5308 104.532 38.8748 103.828 38.8748 102.772C38.8748 101.412 40.0108 100.548 41.6748 100.548C43.3068 100.548 44.3628 101.444 44.4108 102.884H43.3388C43.3068 101.988 42.6828 101.46 41.6428 101.46C40.5548 101.46 39.9468 101.924 39.9468 102.756C39.9468 103.348 40.3628 103.764 41.2108 103.972L42.5388 104.308C43.8828 104.644 44.4908 105.268 44.4908 106.388C44.4908 107.78 43.3068 108.692 41.5468 108.692C39.8028 108.692 38.7148 107.764 38.7148 106.324ZM47.4123 108.484H46.3083V96.836H47.4123V102.1C47.9083 101.172 48.8523 100.548 50.1483 100.548C52.1803 100.548 53.0923 101.812 53.0923 103.764V108.5H51.9883V104.004C51.9883 102.196 51.1403 101.556 49.9403 101.556C48.2763 101.556 47.4123 102.788 47.4123 104.276V108.484ZM55.8366 98.628C55.3886 98.628 55.0206 98.26 55.0206 97.812C55.0206 97.364 55.3886 96.98 55.8366 96.98C56.2846 96.98 56.6686 97.364 56.6686 97.812C56.6686 98.26 56.2846 98.628 55.8366 98.628ZM55.2926 108.5V100.756H56.3966V108.5H55.2926ZM62.7469 100.66V101.652H62.1389C60.7149 101.652 59.8029 102.612 59.8029 104.084V108.5H58.6989V100.756H59.7389L59.8189 101.956C60.1229 101.124 60.9389 100.58 62.0269 100.58C62.2669 100.58 62.4749 100.596 62.7469 100.66ZM66.303 108.5H65.215V101.684H63.663V100.756H65.215V98.308H66.303V100.756H67.855V101.684H66.303V108.5ZM68.6366 106.324H69.6926C69.6926 107.22 70.3646 107.78 71.4526 107.78C72.6526 107.78 73.3566 107.268 73.3566 106.436C73.3566 105.796 73.0366 105.428 72.1246 105.204L70.7966 104.868C69.4526 104.532 68.7966 103.828 68.7966 102.772C68.7966 101.412 69.9326 100.548 71.5966 100.548C73.2286 100.548 74.2846 101.444 74.3326 102.884H73.2606C73.2286 101.988 72.6046 101.46 71.5646 101.46C70.4766 101.46 69.8686 101.924 69.8686 102.756C69.8686 103.348 70.2846 103.764 71.1326 103.972L72.4606 104.308C73.8046 104.644 74.4126 105.268 74.4126 106.388C74.4126 107.78 73.2286 108.692 71.4686 108.692C69.7246 108.692 68.6366 107.764 68.6366 106.324Z" fill="black" fill-opacity="0.6"/>
<path d="M261.531 97.4694L266.531 102.469C266.601 102.539 266.656 102.622 266.694 102.713C266.732 102.804 266.751 102.902 266.751 103.001C266.751 103.099 266.732 103.197 266.694 103.288C266.656 103.379 266.601 103.462 266.531 103.532L261.531 108.532C261.39 108.673 261.199 108.752 260.999 108.752C260.8 108.752 260.609 108.673 260.468 108.532C260.327 108.391 260.248 108.2 260.248 108.001C260.248 107.801 260.327 107.61 260.468 107.469L264.938 103L260.468 98.5307C260.327 98.3898 260.248 98.1987 260.248 97.9994C260.248 97.8001 260.327 97.609 260.468 97.4682C260.609 97.3273 260.8 97.2481 260.999 97.2481C261.198 97.2481 261.389 97.3273 261.53 97.4682L261.531 97.4694Z" fill="black" fill-opacity="0.6"/>
<path d="M24.704 136.02C24.704 134.1 26.24 132.836 28.544 132.836C30.608 132.836 31.968 133.988 32.144 135.908H30.976C30.848 134.612 29.968 133.876 28.528 133.876C26.912 133.876 25.856 134.708 25.856 136.004C25.856 137.012 26.448 137.652 27.648 137.956L29.616 138.436C31.408 138.868 32.336 139.892 32.336 141.444C32.336 143.428 30.8 144.692 28.432 144.692C26.208 144.692 24.704 143.524 24.56 141.652H25.744C25.808 142.852 26.864 143.636 28.432 143.636C30.112 143.636 31.184 142.82 31.184 141.508C31.184 140.484 30.608 139.812 29.376 139.524L27.44 139.044C25.648 138.612 24.704 137.588 24.704 136.02ZM35.2716 144.484H34.1676V132.836H35.2716V138.1C35.7676 137.172 36.7116 136.548 38.0076 136.548C40.0396 136.548 40.9516 137.812 40.9516 139.764V144.5H39.8476V140.004C39.8476 138.196 38.9996 137.556 37.7996 137.556C36.1356 137.556 35.2716 138.788 35.2716 140.276V144.484ZM42.608 140.628C42.608 138.26 44.272 136.548 46.544 136.548C48.816 136.548 50.48 138.26 50.48 140.628C50.48 142.98 48.816 144.692 46.544 144.692C44.272 144.692 42.608 142.98 42.608 140.628ZM43.728 140.612C43.728 142.436 44.88 143.7 46.544 143.7C48.192 143.7 49.36 142.436 49.36 140.612C49.36 138.82 48.192 137.54 46.544 137.54C44.88 137.54 43.728 138.82 43.728 140.612ZM56.2938 136.66V137.652H55.6858C54.2618 137.652 53.3498 138.612 53.3498 140.084V144.5H52.2458V136.756H53.2858L53.3658 137.956C53.6698 137.124 54.4858 136.58 55.5738 136.58C55.8138 136.58 56.0218 136.596 56.2938 136.66ZM59.8499 144.5H58.7619V137.684H57.2099V136.756H58.7619V134.308H59.8499V136.756H61.4019V137.684H59.8499V144.5ZM62.1835 142.324H63.2395C63.2395 143.22 63.9115 143.78 64.9995 143.78C66.1995 143.78 66.9035 143.268 66.9035 142.436C66.9035 141.796 66.5835 141.428 65.6715 141.204L64.3435 140.868C62.9995 140.532 62.3435 139.828 62.3435 138.772C62.3435 137.412 63.4795 136.548 65.1435 136.548C66.7755 136.548 67.8315 137.444 67.8795 138.884H66.8075C66.7755 137.988 66.1515 137.46 65.1115 137.46C64.0235 137.46 63.4155 137.924 63.4155 138.756C63.4155 139.348 63.8315 139.764 64.6795 139.972L66.0075 140.308C67.3515 140.644 67.9595 141.268 67.9595 142.388C67.9595 143.78 66.7755 144.692 65.0155 144.692C63.2715 144.692 62.1835 143.764 62.1835 142.324Z" fill="black" fill-opacity="0.6"/>
<path d="M261.531 133.469L266.531 138.469C266.601 138.539 266.656 138.622 266.694 138.713C266.732 138.804 266.751 138.902 266.751 139.001C266.751 139.099 266.732 139.197 266.694 139.288C266.656 139.379 266.601 139.462 266.531 139.532L261.531 144.532C261.39 144.673 261.199 144.752 260.999 144.752C260.8 144.752 260.609 144.673 260.468 144.532C260.327 144.391 260.248 144.2 260.248 144.001C260.248 143.801 260.327 143.61 260.468 143.469L264.938 139L260.468 134.531C260.327 134.39 260.248 134.199 260.248 133.999C260.248 133.8 260.327 133.609 260.468 133.468C260.609 133.327 260.8 133.248 260.999 133.248C261.198 133.248 261.389 133.327 261.53 133.468L261.531 133.469Z" fill="black" fill-opacity="0.6"/>
<path d="M24.704 172.02C24.704 170.1 26.24 168.836 28.544 168.836C30.608 168.836 31.968 169.988 32.144 171.908H30.976C30.848 170.612 29.968 169.876 28.528 169.876C26.912 169.876 25.856 170.708 25.856 172.004C25.856 173.012 26.448 173.652 27.648 173.956L29.616 174.436C31.408 174.868 32.336 175.892 32.336 177.444C32.336 179.428 30.8 180.692 28.432 180.692C26.208 180.692 24.704 179.524 24.56 177.652H25.744C25.808 178.852 26.864 179.636 28.432 179.636C30.112 179.636 31.184 178.82 31.184 177.508C31.184 176.484 30.608 175.812 29.376 175.524L27.44 175.044C25.648 174.612 24.704 173.588 24.704 172.02ZM35.2716 180.484H34.1676V168.836H35.2716V174.1C35.7676 173.172 36.7116 172.548 38.0076 172.548C40.0396 172.548 40.9516 173.812 40.9516 175.764V180.5H39.8476V176.004C39.8476 174.196 38.9996 173.556 37.7996 173.556C36.1356 173.556 35.2716 174.788 35.2716 176.276V180.484ZM43.696 170.628C43.248 170.628 42.88 170.26 42.88 169.812C42.88 169.364 43.248 168.98 43.696 168.98C44.144 168.98 44.528 169.364 44.528 169.812C44.528 170.26 44.144 170.628 43.696 170.628ZM43.152 180.5V172.756H44.256V180.5H43.152ZM50.6063 172.66V173.652H49.9983C48.5743 173.652 47.6623 174.612 47.6623 176.084V180.5H46.5583V172.756H47.5983L47.6783 173.956C47.9823 173.124 48.7983 172.58 49.8863 172.58C50.1263 172.58 50.3343 172.596 50.6063 172.66ZM54.1624 180.5H53.0744V173.684H51.5224V172.756H53.0744V170.308H54.1624V172.756H55.7144V173.684H54.1624V180.5ZM56.496 178.324H57.552C57.552 179.22 58.224 179.78 59.312 179.78C60.512 179.78 61.216 179.268 61.216 178.436C61.216 177.796 60.896 177.428 59.984 177.204L58.656 176.868C57.312 176.532 56.656 175.828 56.656 174.772C56.656 173.412 57.792 172.548 59.456 172.548C61.088 172.548 62.144 173.444 62.192 174.884H61.12C61.088 173.988 60.464 173.46 59.424 173.46C58.336 173.46 57.728 173.924 57.728 174.756C57.728 175.348 58.144 175.764 58.992 175.972L60.32 176.308C61.664 176.644 62.272 177.268 62.272 178.388C62.272 179.78 61.088 180.692 59.328 180.692C57.584 180.692 56.496 179.764 56.496 178.324Z" fill="black" fill-opacity="0.6"/>
<path d="M261.531 169.469L266.531 174.469C266.601 174.539 266.656 174.622 266.694 174.713C266.732 174.804 266.751 174.902 266.751 175.001C266.751 175.099 266.732 175.197 266.694 175.288C266.656 175.379 266.601 175.462 266.531 175.532L261.531 180.532C261.39 180.673 261.199 180.752 260.999 180.752C260.8 180.752 260.609 180.673 260.468 180.532C260.327 180.391 260.248 180.2 260.248 180.001C260.248 179.801 260.327 179.61 260.468 179.469L264.938 175L260.468 170.531C260.327 170.39 260.248 170.199 260.248 169.999C260.248 169.8 260.327 169.609 260.468 169.468C260.609 169.327 260.8 169.248 260.999 169.248C261.198 169.248 261.389 169.327 261.53 169.468L261.531 169.469Z" fill="black" fill-opacity="0.6"/>
<path d="M26.544 216.5H25.392V205.044H26.544V210.148H32.736V205.044H33.872V216.5H32.736V211.22H26.544V216.5ZM35.8893 212.628C35.8893 210.26 37.5533 208.548 39.8253 208.548C42.0973 208.548 43.7613 210.26 43.7613 212.628C43.7613 214.98 42.0973 216.692 39.8253 216.692C37.5533 216.692 35.8893 214.98 35.8893 212.628ZM37.0093 212.612C37.0093 214.436 38.1613 215.7 39.8253 215.7C41.4733 215.7 42.6413 214.436 42.6413 212.612C42.6413 210.82 41.4733 209.54 39.8253 209.54C38.1613 209.54 37.0093 210.82 37.0093 212.612ZM44.983 212.628C44.983 210.26 46.647 208.548 48.919 208.548C51.191 208.548 52.855 210.26 52.855 212.628C52.855 214.98 51.191 216.692 48.919 216.692C46.647 216.692 44.983 214.98 44.983 212.628ZM46.103 212.612C46.103 214.436 47.255 215.7 48.919 215.7C50.567 215.7 51.735 214.436 51.735 212.612C51.735 210.82 50.567 209.54 48.919 209.54C47.255 209.54 46.103 210.82 46.103 212.612ZM57.6608 216.692C55.4048 216.692 54.0768 214.964 54.0768 212.644C54.0768 210.308 55.4048 208.548 57.7088 208.548C58.9888 208.548 60.0128 209.108 60.5568 210.228V204.836H61.6608V216.5H60.7008L60.5888 214.916C60.0448 216.116 58.9568 216.692 57.6608 216.692ZM57.8528 215.684C59.5488 215.684 60.5408 214.404 60.5408 212.612C60.5408 210.836 59.5488 209.54 57.8528 209.54C56.1728 209.54 55.1968 210.836 55.1968 212.612C55.1968 214.404 56.1728 215.684 57.8528 215.684ZM64.5085 206.628C64.0605 206.628 63.6925 206.26 63.6925 205.812C63.6925 205.364 64.0605 204.98 64.5085 204.98C64.9565 204.98 65.3405 205.364 65.3405 205.812C65.3405 206.26 64.9565 206.628 64.5085 206.628ZM63.9645 216.5V208.756H65.0685V216.5H63.9645ZM70.6188 216.692C68.3468 216.692 66.8268 215.06 66.8268 212.628C66.8268 210.212 68.3307 208.548 70.5388 208.548C72.6348 208.548 74.0588 210.036 74.0588 212.228V212.772H67.8988C67.9788 214.66 68.9708 215.748 70.6348 215.748C71.8988 215.748 72.7148 215.204 73.0028 214.18H74.0588C73.6428 215.812 72.4428 216.692 70.6188 216.692ZM70.5388 209.492C69.0828 209.492 68.1228 210.452 67.9308 211.972H72.9548C72.9548 210.484 71.9948 209.492 70.5388 209.492Z" fill="black" fill-opacity="0.6"/>
<path d="M261.531 205.469L266.531 210.469C266.601 210.539 266.656 210.622 266.694 210.713C266.732 210.804 266.751 210.902 266.751 211.001C266.751 211.099 266.732 211.197 266.694 211.288C266.656 211.379 266.601 211.462 266.531 211.532L261.531 216.532C261.39 216.673 261.199 216.752 260.999 216.752C260.8 216.752 260.609 216.673 260.468 216.532C260.327 216.391 260.248 216.2 260.248 216.001C260.248 215.801 260.327 215.61 260.468 215.469L264.938 211L260.468 206.531C260.327 206.39 260.248 206.199 260.248 205.999C260.248 205.8 260.327 205.609 260.468 205.468C260.609 205.327 260.8 205.248 260.999 205.248C261.198 205.248 261.389 205.327 261.53 205.468L261.531 205.469Z" fill="black" fill-opacity="0.6"/>
<path d="M24.32 249.348V248.9H25.44V249.348C25.44 250.708 26.176 251.604 27.568 251.604C29.024 251.604 29.696 250.692 29.696 249.332V241.044H30.848V249.364C30.848 251.444 29.504 252.692 27.568 252.692C25.504 252.692 24.32 251.332 24.32 249.348ZM36.5563 252.692C34.2843 252.692 32.7643 251.06 32.7643 248.628C32.7643 246.212 34.2682 244.548 36.4763 244.548C38.5723 244.548 39.9963 246.036 39.9963 248.228V248.772H33.8363C33.9163 250.66 34.9083 251.748 36.5723 251.748C37.8363 251.748 38.6523 251.204 38.9403 250.18H39.9963C39.5803 251.812 38.3803 252.692 36.5563 252.692ZM36.4763 245.492C35.0203 245.492 34.0603 246.452 33.8683 247.972H38.8923C38.8923 246.484 37.9323 245.492 36.4763 245.492ZM43.9073 252.692C42.2593 252.692 41.2833 251.764 41.2833 250.404C41.2833 248.98 42.3713 248.084 44.1793 247.94L46.7393 247.732V247.476C46.7393 245.956 45.8273 245.476 44.6913 245.476C43.3473 245.476 42.5473 246.084 42.5473 247.124H41.5393C41.5393 245.556 42.8193 244.548 44.7233 244.548C46.5153 244.548 47.8273 245.444 47.8273 247.492V252.5H46.8993L46.7553 251.14C46.2753 252.116 45.2193 252.692 43.9073 252.692ZM44.1633 251.796C45.7953 251.796 46.7393 250.66 46.7393 248.98V248.564L44.4513 248.74C42.9953 248.868 42.4033 249.508 42.4033 250.372C42.4033 251.316 43.1073 251.796 44.1633 251.796ZM51.1466 252.5H50.0426V244.756H51.0026L51.1626 246.1C51.6746 245.108 52.6986 244.548 53.8186 244.548C55.9466 244.548 56.8266 245.812 56.8266 247.764V252.5H55.7226V248.004C55.7226 246.196 54.9066 245.556 53.6266 245.556C52.0426 245.556 51.1466 246.708 51.1466 248.452V252.5ZM58.2773 250.324H59.3333C59.3333 251.22 60.0053 251.78 61.0933 251.78C62.2933 251.78 62.9973 251.268 62.9973 250.436C62.9973 249.796 62.6773 249.428 61.7653 249.204L60.4373 248.868C59.0933 248.532 58.4373 247.828 58.4373 246.772C58.4373 245.412 59.5733 244.548 61.2373 244.548C62.8693 244.548 63.9253 245.444 63.9733 246.884H62.9013C62.8693 245.988 62.2453 245.46 61.2053 245.46C60.1173 245.46 59.5093 245.924 59.5093 246.756C59.5093 247.348 59.9253 247.764 60.7733 247.972L62.1013 248.308C63.4453 248.644 64.0533 249.268 64.0533 250.388C64.0533 251.78 62.8693 252.692 61.1093 252.692C59.3653 252.692 58.2773 251.764 58.2773 250.324Z" fill="black" fill-opacity="0.6"/>
<path d="M261.531 241.469L266.531 246.469C266.601 246.539 266.656 246.622 266.694 246.713C266.732 246.804 266.751 246.902 266.751 247.001C266.751 247.099 266.732 247.197 266.694 247.288C266.656 247.379 266.601 247.462 266.531 247.532L261.531 252.532C261.39 252.673 261.199 252.752 260.999 252.752C260.8 252.752 260.609 252.673 260.468 252.532C260.327 252.391 260.248 252.2 260.248 252.001C260.248 251.801 260.327 251.61 260.468 251.469L264.938 247L260.468 242.531C260.327 242.39 260.248 242.199 260.248 241.999C260.248 241.8 260.327 241.609 260.468 241.468C260.609 241.327 260.8 241.248 260.999 241.248C261.198 241.248 261.389 241.327 261.53 241.468L261.531 241.469Z" fill="black" fill-opacity="0.6"/>
<line x1="24" y1="278.5" x2="271" y2="278.5" stroke="black" stroke-opacity="0.1"/>
<path d="M31.4 318.96H28.18V324H25.62V309.38H31.4C34.34 309.38 36.24 311.3 36.24 314.16C36.24 316.98 34.32 318.96 31.4 318.96ZM30.9 311.66H28.18V316.68H30.86C32.62 316.68 33.56 315.74 33.56 314.14C33.56 312.54 32.6 311.66 30.9 311.66ZM44.2334 314.08V316.34H43.3334C41.5734 316.34 40.4734 317.28 40.4734 319.2V324H38.0334V314.14H40.3334L40.4734 315.58C40.8934 314.6 41.8334 313.94 43.1534 313.94C43.4934 313.94 43.8334 313.98 44.2334 314.08ZM47.105 312.14C46.265 312.14 45.605 311.48 45.605 310.66C45.605 309.84 46.265 309.2 47.105 309.2C47.905 309.2 48.565 309.84 48.565 310.66C48.565 311.48 47.905 312.14 47.105 312.14ZM45.885 324V314.12H48.325V324H45.885ZM50.2659 319.04C50.2659 315.98 52.2859 313.82 55.2059 313.82C57.9059 313.82 59.7459 315.32 60.0059 317.7H57.5659C57.2859 316.58 56.4659 316 55.3059 316C53.7459 316 52.7059 317.18 52.7059 319.04C52.7059 320.9 53.6659 322.06 55.2259 322.06C56.4459 322.06 57.3059 321.46 57.5659 320.38H60.0259C59.7259 322.68 57.8059 324.26 55.2259 324.26C52.2259 324.26 50.2659 322.18 50.2659 319.04ZM66.262 324.26C63.322 324.26 61.262 322.12 61.262 319.06C61.262 315.96 63.282 313.82 66.182 313.82C69.142 313.82 71.022 315.8 71.022 318.88V319.62L63.582 319.64C63.762 321.38 64.682 322.26 66.302 322.26C67.642 322.26 68.522 321.74 68.802 320.8H71.062C70.642 322.96 68.842 324.26 66.262 324.26ZM66.202 315.82C64.762 315.82 63.882 316.6 63.642 318.08H68.602C68.602 316.72 67.662 315.82 66.202 315.82Z" fill="black"/>
<path d="M257.469 317.969L262.469 312.969C262.539 312.9 262.622 312.844 262.713 312.806C262.804 312.768 262.902 312.749 263.001 312.749C263.099 312.749 263.197 312.768 263.288 312.806C263.379 312.844 263.462 312.9 263.532 312.969L268.532 317.969C268.673 318.11 268.752 318.301 268.752 318.501C268.752 318.7 268.673 318.891 268.532 319.032C268.391 319.173 268.2 319.252 268.001 319.252C267.801 319.252 267.61 319.173 267.469 319.032L263 314.563L258.531 319.033C258.39 319.173 258.199 319.253 257.999 319.253C257.8 319.253 257.609 319.173 257.468 319.033C257.327 318.892 257.248 318.701 257.248 318.501C257.248 318.302 257.327 318.111 257.468 317.97L257.469 317.969Z" fill="black"/>
<path d="M64.598 390.358V389.154C62.75 389.042 61.532 387.992 61.448 386.354H62.848C62.876 387.25 63.534 387.838 64.598 387.95V384.464L64.094 384.352C62.442 383.974 61.588 383.05 61.588 381.608C61.588 380.012 62.778 378.878 64.598 378.724V377.506H65.494V378.71C67.188 378.864 68.266 379.9 68.364 381.524H67.006C66.95 380.628 66.404 380.054 65.494 379.928V383.4L66.04 383.526C67.72 383.904 68.532 384.786 68.532 386.186C68.532 387.852 67.342 388.972 65.494 389.14V390.358H64.598ZM64.374 383.134L64.598 383.19V379.928C63.562 380.068 62.932 380.67 62.932 381.566C62.932 382.378 63.394 382.896 64.374 383.134ZM65.76 384.744L65.494 384.688V387.922C66.544 387.782 67.188 387.18 67.188 386.298C67.188 385.486 66.726 384.968 65.76 384.744ZM73.1681 389.168C71.0961 389.168 69.7521 387.852 69.7521 385.836H71.1101C71.1101 387.138 71.9081 387.936 73.1961 387.936C74.5681 387.936 75.4501 387.026 75.4501 385.654C75.4501 384.352 74.6241 383.386 73.2101 383.386C72.3561 383.386 71.5721 383.792 71.1101 384.366L69.9481 384.072L71.1801 378.878H76.2481V380.138H72.1741L71.5021 382.826C72.0341 382.42 72.7061 382.21 73.4621 382.21C75.5201 382.21 76.8501 383.652 76.8501 385.598C76.8501 387.698 75.3521 389.168 73.1681 389.168ZM78.0376 383.946C78.0376 380.81 79.6616 378.682 82.2096 378.682C84.7436 378.682 86.3676 380.81 86.3676 383.946C86.3676 387.096 84.8136 389.182 82.2096 389.182C79.5916 389.182 78.0376 387.096 78.0376 383.946ZM79.3956 383.946C79.3956 386.438 80.4316 387.95 82.2096 387.95C83.9876 387.95 85.0096 386.438 85.0096 383.946C85.0096 381.426 83.9876 379.914 82.2096 379.914C80.4316 379.914 79.3956 381.426 79.3956 383.946Z" fill="black"/>
<path d="M206.825 390.358V389.154C204.977 389.042 203.759 387.992 203.675 386.354H205.075C205.103 387.25 205.761 387.838 206.825 387.95V384.464L206.321 384.352C204.669 383.974 203.815 383.05 203.815 381.608C203.815 380.012 205.005 378.878 206.825 378.724V377.506H207.721V378.71C209.415 378.864 210.493 379.9 210.591 381.524H209.233C209.177 380.628 208.631 380.054 207.721 379.928V383.4L208.267 383.526C209.947 383.904 210.759 384.786 210.759 386.186C210.759 387.852 209.569 388.972 207.721 389.14V390.358H206.825ZM206.601 383.134L206.825 383.19V379.928C205.789 380.068 205.159 380.67 205.159 381.566C205.159 382.378 205.621 382.896 206.601 383.134ZM207.987 384.744L207.721 384.688V387.922C208.771 387.782 209.415 387.18 209.415 386.298C209.415 385.486 208.953 384.968 207.987 384.744ZM218.783 388.986L211.951 389V387.95L215.213 385.136C216.851 383.722 217.313 383.036 217.313 381.958C217.313 380.684 216.585 379.928 215.367 379.928C214.121 379.928 213.309 380.838 213.281 382.28H211.909C211.951 380.11 213.323 378.696 215.381 378.696C217.411 378.696 218.713 379.928 218.713 381.874C218.713 383.316 217.999 384.338 216.207 385.892L214.107 387.712H218.783V388.986ZM220.045 383.946C220.045 380.81 221.669 378.682 224.217 378.682C226.751 378.682 228.375 380.81 228.375 383.946C228.375 387.096 226.821 389.182 224.217 389.182C221.599 389.182 220.045 387.096 220.045 383.946ZM221.403 383.946C221.403 386.438 222.439 387.95 224.217 387.95C225.995 387.95 227.017 386.438 227.017 383.946C227.017 381.426 225.995 379.914 224.217 379.914C222.439 379.914 221.403 381.426 221.403 383.946ZM229.752 383.946C229.752 380.81 231.376 378.682 233.924 378.682C236.458 378.682 238.082 380.81 238.082 383.946C238.082 387.096 236.528 389.182 233.924 389.182C231.306 389.182 229.752 387.096 229.752 383.946ZM231.11 383.946C231.11 386.438 232.146 387.95 233.924 387.95C235.702 387.95 236.724 386.438 236.724 383.946C236.724 381.426 235.702 379.914 233.924 379.914C232.146 379.914 231.11 381.426 231.11 383.946Z" fill="black"/>
<rect x="24" y="358" width="247" height="6" rx="3" fill="#F0F0F0"/>
<rect x="67.127" y="358" width="150.291" height="6" rx="3" fill="black"/>
<circle cx="75" cy="360" r="10" fill="black"/>
<circle cx="221" cy="360" r="10" fill="black"/>
<line x1="24" y1="416.5" x2="271" y2="416.5" stroke="black" stroke-opacity="0.1"/>
<path d="M31.8 462.24C27.54 462.24 24.78 459.28 24.78 454.7C24.78 450.16 27.64 447.14 31.92 447.14C35.38 447.14 37.96 449.16 38.46 452.3H35.76C35.26 450.6 33.8 449.6 31.86 449.6C29.16 449.6 27.46 451.56 27.46 454.68C27.46 457.78 29.18 459.78 31.86 459.78C33.84 459.78 35.36 458.74 35.84 457.12H38.5C37.94 460.2 35.26 462.24 31.8 462.24ZM39.8558 457.04C39.8558 453.96 42.0758 451.84 45.1358 451.84C48.1958 451.84 50.4158 453.96 50.4158 457.04C50.4158 460.12 48.1958 462.24 45.1358 462.24C42.0758 462.24 39.8558 460.12 39.8558 457.04ZM42.2958 457.04C42.2958 458.84 43.4558 460.06 45.1358 460.06C46.8158 460.06 47.9758 458.84 47.9758 457.04C47.9758 455.24 46.8158 454.02 45.1358 454.02C43.4558 454.02 42.2958 455.24 42.2958 457.04ZM54.8098 462H52.3898V447.12H54.8098V462ZM56.7894 457.04C56.7894 453.96 59.0094 451.84 62.0694 451.84C65.1294 451.84 67.3494 453.96 67.3494 457.04C67.3494 460.12 65.1294 462.24 62.0694 462.24C59.0094 462.24 56.7894 460.12 56.7894 457.04ZM59.2294 457.04C59.2294 458.84 60.3894 460.06 62.0694 460.06C63.7494 460.06 64.9094 458.84 64.9094 457.04C64.9094 455.24 63.7494 454.02 62.0694 454.02C60.3894 454.02 59.2294 455.24 59.2294 457.04ZM75.4834 452.08V454.34H74.5834C72.8234 454.34 71.7234 455.28 71.7234 457.2V462H69.2834V452.14H71.5834L71.7234 453.58C72.1434 452.6 73.0834 451.94 74.4034 451.94C74.7434 451.94 75.0834 451.98 75.4834 452.08ZM76.375 459H78.695C78.715 459.86 79.355 460.4 80.475 460.4C81.615 460.4 82.235 459.94 82.235 459.22C82.235 458.72 81.975 458.36 81.095 458.16L79.315 457.74C77.535 457.34 76.675 456.5 76.675 454.92C76.675 452.98 78.315 451.82 80.595 451.82C82.815 451.82 84.315 453.1 84.335 455.02H82.015C81.995 454.18 81.435 453.64 80.495 453.64C79.535 453.64 78.975 454.08 78.975 454.82C78.975 455.38 79.415 455.74 80.255 455.94L82.035 456.36C83.695 456.74 84.535 457.5 84.535 459.02C84.535 461.02 82.835 462.26 80.395 462.26C77.935 462.26 76.375 460.94 76.375 459Z" fill="black"/>
<path d="M257.469 455.969L262.469 450.969C262.539 450.9 262.622 450.844 262.713 450.806C262.804 450.768 262.902 450.749 263.001 450.749C263.099 450.749 263.197 450.768 263.288 450.806C263.379 450.844 263.462 450.9 263.532 450.969L268.532 455.969C268.673 456.11 268.752 456.301 268.752 456.501C268.752 456.7 268.673 456.891 268.532 457.032C268.391 457.173 268.2 457.252 268.001 457.252C267.801 457.252 267.61 457.173 267.469 457.032L263 452.563L258.531 457.033C258.39 457.173 258.199 457.253 257.999 457.253C257.8 457.253 257.609 457.173 257.468 457.033C257.327 456.892 257.248 456.701 257.248 456.501C257.248 456.302 257.327 456.111 257.468 455.97L257.469 455.969Z" fill="black"/>
<circle cx="42.5" cy="506.5" r="18.5" fill="#00C12B"/>
<circle cx="42.5" cy="506.5" r="17.5" stroke="black" stroke-opacity="0.2" stroke-width="2"/>
<circle cx="95" cy="506.5" r="18.5" fill="#F50606"/>
<circle cx="95" cy="506.5" r="18" stroke="black" stroke-opacity="0.2"/>
<circle cx="147.5" cy="506.5" r="18.5" fill="#F5DD06"/>
<circle cx="147.5" cy="506.5" r="18" stroke="black" stroke-opacity="0.2"/>
<circle cx="200" cy="506.5" r="18.5" fill="#F57906"/>
<circle cx="200" cy="506.5" r="18" stroke="black" stroke-opacity="0.2"/>
<circle cx="252.5" cy="506.5" r="18.5" fill="#06CAF5"/>
<circle cx="252.5" cy="506.5" r="18" stroke="black" stroke-opacity="0.2"/>
<circle cx="42.5" cy="559.5" r="18.5" fill="#063AF5"/>
<circle cx="42.5" cy="559.5" r="17.5" stroke="black" stroke-opacity="0.2" stroke-width="2"/>
<path d="M48.5306 556.031L40.5306 564.031C40.4609 564.101 40.3781 564.156 40.287 564.194C40.1958 564.232 40.0981 564.251 39.9993 564.251C39.9006 564.251 39.8029 564.232 39.7117 564.194C39.6206 564.156 39.5378 564.101 39.4681 564.031L35.9681 560.531C35.8983 560.461 35.843 560.378 35.8052 560.287C35.7675 560.196 35.748 560.098 35.748 559.999C35.748 559.901 35.7675 559.803 35.8052 559.712C35.843 559.621 35.8983 559.538 35.9681 559.468C36.0379 559.398 36.1207 559.343 36.2118 559.305C36.303 559.268 36.4007 559.248 36.4993 559.248C36.598 559.248 36.6957 559.268 36.7869 559.305C36.878 559.343 36.9608 559.398 37.0306 559.468L40 562.438L47.4693 554.969C47.6102 554.828 47.8013 554.749 48.0006 554.749C48.1999 554.749 48.391 554.828 48.5318 554.969C48.6727 555.11 48.7519 555.301 48.7519 555.501C48.7519 555.7 48.6727 555.891 48.5318 556.032L48.5306 556.031Z" fill="white"/>
<circle cx="95" cy="559.5" r="18.5" fill="#7D06F5"/>
<circle cx="95" cy="559.5" r="18" stroke="black" stroke-opacity="0.2"/>
<circle cx="147.5" cy="559.5" r="18.5" fill="#F506A4"/>
<circle cx="147.5" cy="559.5" r="18" stroke="black" stroke-opacity="0.2"/>
<circle cx="200" cy="559.5" r="18.5" fill="white"/>
<circle cx="200" cy="559.5" r="18" stroke="black" stroke-opacity="0.2"/>
<circle cx="252.5" cy="559.5" r="18.5" fill="black"/>
<line x1="24" y1="601.5" x2="271" y2="601.5" stroke="black" stroke-opacity="0.1"/>
<path d="M24.78 636.46C24.78 633.9 26.9 632.12 29.98 632.12C32.94 632.12 34.82 633.76 34.9 636.4H32.34C32.28 635.14 31.38 634.4 29.94 634.4C28.36 634.4 27.34 635.16 27.34 636.38C27.34 637.42 27.9 638 29.12 638.28L31.42 638.78C33.92 639.32 35.14 640.6 35.14 642.78C35.14 645.5 33.02 647.26 29.8 647.26C26.68 647.26 24.64 645.6 24.58 642.98H27.14C27.16 644.22 28.16 644.96 29.8 644.96C31.5 644.96 32.58 644.22 32.58 643C32.58 642.02 32.08 641.44 30.88 641.18L28.56 640.66C26.08 640.12 24.78 638.7 24.78 636.46ZM38.3159 635.14C37.4759 635.14 36.8159 634.48 36.8159 633.66C36.8159 632.84 37.4759 632.2 38.3159 632.2C39.1159 632.2 39.7759 632.84 39.7759 633.66C39.7759 634.48 39.1159 635.14 38.3159 635.14ZM37.0959 647V637.12H39.5359V647H37.0959ZM49.5169 647H41.5369V645L46.4569 639.16H41.5369V637.12H49.5169V639.14L44.5169 644.96H49.5169V647ZM55.8128 647.26C52.8728 647.26 50.8128 645.12 50.8128 642.06C50.8128 638.96 52.8328 636.82 55.7328 636.82C58.6928 636.82 60.5728 638.8 60.5728 641.88V642.62L53.1328 642.64C53.3128 644.38 54.2328 645.26 55.8528 645.26C57.1928 645.26 58.0728 644.74 58.3528 643.8H60.6128C60.1928 645.96 58.3928 647.26 55.8128 647.26ZM55.7528 638.82C54.3128 638.82 53.4328 639.6 53.1928 641.08H58.1528C58.1528 639.72 57.2128 638.82 55.7528 638.82Z" fill="black"/>
<path d="M257.469 640.969L262.469 635.969C262.539 635.9 262.622 635.844 262.713 635.806C262.804 635.768 262.902 635.749 263.001 635.749C263.099 635.749 263.197 635.768 263.288 635.806C263.379 635.844 263.462 635.9 263.532 635.969L268.532 640.969C268.673 641.11 268.752 641.301 268.752 641.501C268.752 641.7 268.673 641.891 268.532 642.032C268.391 642.173 268.2 642.252 268.001 642.252C267.801 642.252 267.61 642.173 267.469 642.032L263 637.563L258.531 642.033C258.39 642.173 258.199 642.253 257.999 642.253C257.8 642.253 257.609 642.173 257.468 642.033C257.327 641.892 257.248 641.701 257.248 641.501C257.248 641.302 257.327 641.111 257.468 640.97L257.469 640.969Z" fill="black"/>
<rect x="24" y="673" width="96" height="39" rx="19.5" fill="#F0F0F0"/>
<path d="M47.696 693.002L44.196 687.976H45.386L47.248 690.608C47.724 691.28 48.046 691.812 48.284 692.26L51.196 687.976H52.358L48.914 692.974L52.414 698H51.21L49.306 695.312C48.97 694.836 48.564 694.22 48.312 693.772L45.386 698H44.21L47.696 693.002ZM56.2683 693.002L52.7683 687.976H53.9583L55.8203 690.608C56.2963 691.28 56.6183 691.812 56.8563 692.26L59.7683 687.976H60.9303L57.4863 692.974L60.9863 698H59.7823L57.8783 695.312C57.5423 694.836 57.1363 694.22 56.8843 693.772L53.9583 698H52.7823L56.2683 693.002ZM61.8628 694.752V693.884H65.9228V694.752H61.8628ZM67.0926 690.58C67.0926 688.9 68.4366 687.794 70.4526 687.794C72.2586 687.794 73.4486 688.802 73.6026 690.482H72.5806C72.4686 689.348 71.6986 688.704 70.4386 688.704C69.0246 688.704 68.1006 689.432 68.1006 690.566C68.1006 691.448 68.6186 692.008 69.6686 692.274L71.3906 692.694C72.9586 693.072 73.7706 693.968 73.7706 695.326C73.7706 697.062 72.4266 698.168 70.3546 698.168C68.4086 698.168 67.0926 697.146 66.9666 695.508H68.0026C68.0586 696.558 68.9826 697.244 70.3546 697.244C71.8246 697.244 72.7626 696.53 72.7626 695.382C72.7626 694.486 72.2586 693.898 71.1806 693.646L69.4866 693.226C67.9186 692.848 67.0926 691.952 67.0926 690.58ZM76.3392 698H75.3732V691.224H76.2132L76.3252 692.19C76.6612 691.476 77.4172 691.042 78.3692 691.042C79.4332 691.042 80.2312 691.602 80.5532 692.484C80.8612 691.602 81.6872 691.042 82.7792 691.042C84.2492 691.042 85.2152 691.994 85.2152 693.562V698H84.2772V693.758C84.2772 692.596 83.6332 691.91 82.5972 691.91C81.4632 691.91 80.7912 692.764 80.7912 693.814V698H79.8392V693.744C79.8392 692.596 79.1812 691.924 78.1592 691.924C77.0252 691.924 76.3392 692.764 76.3392 693.8V698ZM89.1044 698.168C87.6624 698.168 86.8084 697.356 86.8084 696.166C86.8084 694.92 87.7604 694.136 89.3424 694.01L91.5824 693.828V693.604C91.5824 692.274 90.7844 691.854 89.7904 691.854C88.6144 691.854 87.9144 692.386 87.9144 693.296H87.0324C87.0324 691.924 88.1524 691.042 89.8184 691.042C91.3864 691.042 92.5344 691.826 92.5344 693.618V698H91.7224L91.5964 696.81C91.1764 697.664 90.2524 698.168 89.1044 698.168ZM89.3284 697.384C90.7564 697.384 91.5824 696.39 91.5824 694.92V694.556L89.5804 694.71C88.3064 694.822 87.7884 695.382 87.7884 696.138C87.7884 696.964 88.4044 697.384 89.3284 697.384ZM95.4808 698H94.5148V687.794H95.4808V698ZM98.5433 698H97.5773V687.794H98.5433V698Z" fill="black" fill-opacity="0.6"/>
<rect x="128" y="673" width="88" height="39" rx="19.5" fill="#F0F0F0"/>
<path d="M151.696 693.002L148.196 687.976H149.386L151.248 690.608C151.724 691.28 152.046 691.812 152.284 692.26L155.196 687.976H156.358L152.914 692.974L156.414 698H155.21L153.306 695.312C152.97 694.836 152.564 694.22 152.312 693.772L149.386 698H148.21L151.696 693.002ZM157.291 694.752V693.884H161.351V694.752H157.291ZM162.52 690.58C162.52 688.9 163.864 687.794 165.88 687.794C167.686 687.794 168.876 688.802 169.03 690.482H168.008C167.896 689.348 167.126 688.704 165.866 688.704C164.452 688.704 163.528 689.432 163.528 690.566C163.528 691.448 164.046 692.008 165.096 692.274L166.818 692.694C168.386 693.072 169.198 693.968 169.198 695.326C169.198 697.062 167.854 698.168 165.782 698.168C163.836 698.168 162.52 697.146 162.394 695.508H163.43C163.486 696.558 164.41 697.244 165.782 697.244C167.252 697.244 168.19 696.53 168.19 695.382C168.19 694.486 167.686 693.898 166.608 693.646L164.914 693.226C163.346 692.848 162.52 691.952 162.52 690.58ZM171.767 698H170.801V691.224H171.641L171.753 692.19C172.089 691.476 172.845 691.042 173.797 691.042C174.861 691.042 175.659 691.602 175.981 692.484C176.289 691.602 177.115 691.042 178.207 691.042C179.677 691.042 180.643 691.994 180.643 693.562V698H179.705V693.758C179.705 692.596 179.061 691.91 178.025 691.91C176.891 691.91 176.219 692.764 176.219 693.814V698H175.267V693.744C175.267 692.596 174.609 691.924 173.587 691.924C172.453 691.924 171.767 692.764 171.767 693.8V698ZM184.532 698.168C183.09 698.168 182.236 697.356 182.236 696.166C182.236 694.92 183.188 694.136 184.77 694.01L187.01 693.828V693.604C187.01 692.274 186.212 691.854 185.218 691.854C184.042 691.854 183.342 692.386 183.342 693.296H182.46C182.46 691.924 183.58 691.042 185.246 691.042C186.814 691.042 187.962 691.826 187.962 693.618V698H187.15L187.024 696.81C186.604 697.664 185.68 698.168 184.532 698.168ZM184.756 697.384C186.184 697.384 187.01 696.39 187.01 694.92V694.556L185.008 694.71C183.734 694.822 183.216 695.382 183.216 696.138C183.216 696.964 183.832 697.384 184.756 697.384ZM190.909 698H189.943V687.794H190.909V698ZM193.971 698H193.005V687.794H193.971V698Z" fill="black" fill-opacity="0.6"/>
<rect x="24" y="720" width="74" height="39" rx="19.5" fill="#F0F0F0"/>
<path d="M44.616 737.58C44.616 735.9 45.96 734.794 47.976 734.794C49.782 734.794 50.972 735.802 51.126 737.482H50.104C49.992 736.348 49.222 735.704 47.962 735.704C46.548 735.704 45.624 736.432 45.624 737.566C45.624 738.448 46.142 739.008 47.192 739.274L48.914 739.694C50.482 740.072 51.294 740.968 51.294 742.326C51.294 744.062 49.95 745.168 47.878 745.168C45.932 745.168 44.616 744.146 44.49 742.508H45.526C45.582 743.558 46.506 744.244 47.878 744.244C49.348 744.244 50.286 743.53 50.286 742.382C50.286 741.486 49.782 740.898 48.704 740.646L47.01 740.226C45.442 739.848 44.616 738.952 44.616 737.58ZM53.8627 745H52.8967V738.224H53.7367L53.8487 739.19C54.1847 738.476 54.9407 738.042 55.8927 738.042C56.9567 738.042 57.7547 738.602 58.0767 739.484C58.3847 738.602 59.2107 738.042 60.3027 738.042C61.7727 738.042 62.7387 738.994 62.7387 740.562V745H61.8007V740.758C61.8007 739.596 61.1567 738.91 60.1207 738.91C58.9867 738.91 58.3147 739.764 58.3147 740.814V745H57.3627V740.744C57.3627 739.596 56.7047 738.924 55.6827 738.924C54.5487 738.924 53.8627 739.764 53.8627 740.8V745ZM66.6278 745.168C65.1858 745.168 64.3318 744.356 64.3318 743.166C64.3318 741.92 65.2838 741.136 66.8658 741.01L69.1058 740.828V740.604C69.1058 739.274 68.3078 738.854 67.3138 738.854C66.1378 738.854 65.4378 739.386 65.4378 740.296H64.5558C64.5558 738.924 65.6758 738.042 67.3418 738.042C68.9098 738.042 70.0578 738.826 70.0578 740.618V745H69.2458L69.1198 743.81C68.6998 744.664 67.7758 745.168 66.6278 745.168ZM66.8518 744.384C68.2798 744.384 69.1058 743.39 69.1058 741.92V741.556L67.1038 741.71C65.8298 741.822 65.3118 742.382 65.3118 743.138C65.3118 743.964 65.9278 744.384 66.8518 744.384ZM73.0043 745H72.0383V734.794H73.0043V745ZM76.0668 745H75.1008V734.794H76.0668V745Z" fill="black" fill-opacity="0.6"/>
<rect x="106" y="720" width="90" height="39" rx="19.5" fill="#F0F0F0"/>
<path d="M128.212 745H127.218V734.976H128.212L131.866 743.81L135.52 734.976H136.528V745H135.534V740.24C135.534 738.49 135.562 737.72 135.618 737.034L132.356 745H131.39L128.128 737.076C128.184 737.454 128.212 738.56 128.212 740.086V745ZM141.594 745.168C139.606 745.168 138.276 743.74 138.276 741.612C138.276 739.498 139.592 738.042 141.524 738.042C143.358 738.042 144.604 739.344 144.604 741.262V741.738H139.214C139.284 743.39 140.152 744.342 141.608 744.342C142.714 744.342 143.428 743.866 143.68 742.97H144.604C144.24 744.398 143.19 745.168 141.594 745.168ZM141.524 738.868C140.25 738.868 139.41 739.708 139.242 741.038H143.638C143.638 739.736 142.798 738.868 141.524 738.868ZM148.809 745.168C146.835 745.168 145.673 743.656 145.673 741.626C145.673 739.582 146.835 738.042 148.851 738.042C149.971 738.042 150.867 738.532 151.343 739.512V734.794H152.309V745H151.469L151.371 743.614C150.895 744.664 149.943 745.168 148.809 745.168ZM148.977 744.286C150.461 744.286 151.329 743.166 151.329 741.598C151.329 740.044 150.461 738.91 148.977 738.91C147.507 738.91 146.653 740.044 146.653 741.598C146.653 743.166 147.507 744.286 148.977 744.286ZM154.8 736.362C154.408 736.362 154.086 736.04 154.086 735.648C154.086 735.256 154.408 734.92 154.8 734.92C155.192 734.92 155.528 735.256 155.528 735.648C155.528 736.04 155.192 736.362 154.8 736.362ZM154.324 745V738.224H155.29V745H154.324ZM161.641 738.224H162.607V745H161.767L161.641 743.852C161.263 744.636 160.325 745.168 159.261 745.168C157.665 745.168 156.797 744.076 156.797 742.424V738.21H157.777V742.116C157.777 743.726 158.491 744.3 159.569 744.3C160.871 744.3 161.641 743.432 161.641 741.822V738.224ZM165.585 745H164.619V738.224H165.459L165.571 739.19C165.907 738.476 166.663 738.042 167.615 738.042C168.679 738.042 169.477 738.602 169.799 739.484C170.107 738.602 170.933 738.042 172.025 738.042C173.495 738.042 174.461 738.994 174.461 740.562V745H173.523V740.758C173.523 739.596 172.879 738.91 171.843 738.91C170.709 738.91 170.037 739.764 170.037 740.814V745H169.085V740.744C169.085 739.596 168.427 738.924 167.405 738.924C166.271 738.924 165.585 739.764 165.585 740.8V745Z" fill="black" fill-opacity="0.6"/>
<rect x="24" y="767" width="76" height="39" rx="19.5" fill="black"/>
<path d="M46.548 781.878V790.726H51V792H45.176V781.878H46.548ZM54.2685 792.168C52.7985 792.168 51.9305 791.342 51.9305 790.096C51.9305 788.836 52.8685 788.052 54.4785 787.926L56.6345 787.758V787.562C56.6345 786.414 55.9485 786.008 55.0245 786.008C53.9185 786.008 53.2885 786.498 53.2885 787.324H52.1405C52.1405 785.896 53.3165 784.958 55.0805 784.958C56.7745 784.958 57.9225 785.854 57.9225 787.702V792H56.8025L56.6625 790.894C56.3125 791.678 55.3745 792.168 54.2685 792.168ZM54.6465 791.146C55.8925 791.146 56.6485 790.334 56.6485 789.046V788.682L54.8985 788.822C53.7365 788.934 53.2605 789.382 53.2605 790.054C53.2605 790.782 53.7925 791.146 54.6465 791.146ZM63.665 785.098V786.302H63.077C61.831 786.302 61.061 787.058 61.061 788.374V792H59.745V785.168H60.977L61.061 786.204C61.341 785.49 62.027 785.014 62.965 785.014C63.203 785.014 63.399 785.042 63.665 785.098ZM64.3149 788.402C64.3149 786.47 65.5609 784.958 67.5489 784.958C68.6549 784.958 69.5089 785.462 69.9429 786.316L70.0409 785.154H71.2169V791.72C71.2169 793.876 69.8869 795.248 67.7869 795.248C65.9249 795.248 64.6509 794.198 64.3989 792.462H65.7149C65.8829 793.47 66.6389 794.058 67.7869 794.058C69.0749 794.058 69.9149 793.218 69.9149 791.916V790.544C69.4669 791.342 68.5709 791.818 67.4929 791.818C65.5469 791.818 64.3149 790.32 64.3149 788.402ZM65.6309 788.374C65.6309 789.662 66.4289 790.67 67.7169 790.67C69.0469 790.67 69.8589 789.718 69.8589 788.374C69.8589 787.058 69.0749 786.106 67.7309 786.106C66.4149 786.106 65.6309 787.114 65.6309 788.374ZM76.0701 792.168C74.0541 792.168 72.6681 790.712 72.6681 788.584C72.6681 786.442 74.0261 784.958 76.0141 784.958C77.9601 784.958 79.2341 786.302 79.2341 788.332V788.822L73.9421 788.836C74.0401 790.278 74.7961 791.076 76.0981 791.076C77.1201 791.076 77.7921 790.656 78.0161 789.872H79.2481C78.9121 791.342 77.7641 792.168 76.0701 792.168ZM76.0141 786.064C74.8661 786.064 74.1381 786.75 73.9701 787.954H77.9181C77.9181 786.82 77.1761 786.064 76.0141 786.064Z" fill="white"/>
<rect x="108" y="767" width="89" height="39" rx="19.5" fill="#F0F0F0"/>
<path d="M131.696 787.002L128.196 781.976H129.386L131.248 784.608C131.724 785.28 132.046 785.812 132.284 786.26L135.196 781.976H136.358L132.914 786.974L136.414 792H135.21L133.306 789.312C132.97 788.836 132.564 788.22 132.312 787.772L129.386 792H128.21L131.696 787.002ZM137.291 788.752V787.884H141.351V788.752H137.291ZM144.472 781.976V791.076H149.078V792H143.464V781.976H144.472ZM152.323 792.168C150.881 792.168 150.027 791.356 150.027 790.166C150.027 788.92 150.979 788.136 152.561 788.01L154.801 787.828V787.604C154.801 786.274 154.003 785.854 153.009 785.854C151.833 785.854 151.133 786.386 151.133 787.296H150.251C150.251 785.924 151.371 785.042 153.037 785.042C154.605 785.042 155.753 785.826 155.753 787.618V792H154.941L154.815 790.81C154.395 791.664 153.471 792.168 152.323 792.168ZM152.547 791.384C153.975 791.384 154.801 790.39 154.801 788.92V788.556L152.799 788.71C151.525 788.822 151.007 789.382 151.007 790.138C151.007 790.964 151.623 791.384 152.547 791.384ZM161.234 785.14V786.008H160.702C159.456 786.008 158.658 786.848 158.658 788.136V792H157.692V785.224H158.602L158.672 786.274C158.938 785.546 159.652 785.07 160.604 785.07C160.814 785.07 160.996 785.084 161.234 785.14ZM161.933 788.416C161.933 786.568 163.123 785.042 165.111 785.042C166.287 785.042 167.183 785.588 167.617 786.582L167.715 785.224H168.555V791.79C168.555 793.806 167.267 795.122 165.279 795.122C163.543 795.122 162.325 794.142 162.059 792.504H163.025C163.235 793.596 164.075 794.24 165.293 794.24C166.679 794.24 167.603 793.302 167.603 791.888V790.278C167.141 791.23 166.203 791.79 165.041 791.79C163.109 791.79 161.933 790.264 161.933 788.416ZM162.899 788.402C162.899 789.788 163.753 790.922 165.181 790.922C166.651 790.922 167.519 789.858 167.519 788.402C167.519 786.96 166.679 785.896 165.195 785.896C163.739 785.896 162.899 787.03 162.899 788.402ZM173.413 792.168C171.425 792.168 170.095 790.74 170.095 788.612C170.095 786.498 171.41 785.042 173.343 785.042C175.177 785.042 176.423 786.344 176.423 788.262V788.738H171.033C171.103 790.39 171.971 791.342 173.427 791.342C174.533 791.342 175.247 790.866 175.499 789.97H176.423C176.059 791.398 175.009 792.168 173.413 792.168ZM173.343 785.868C172.069 785.868 171.229 786.708 171.061 788.038H175.457C175.457 786.736 174.617 785.868 173.343 785.868Z" fill="black" fill-opacity="0.6"/>
<rect x="24" y="814" width="98" height="39" rx="19.5" fill="#F0F0F0"/>
<path d="M47.696 834.002L44.196 828.976H45.386L47.248 831.608C47.724 832.28 48.046 832.812 48.284 833.26L51.196 828.976H52.358L48.914 833.974L52.414 839H51.21L49.306 836.312C48.97 835.836 48.564 835.22 48.312 834.772L45.386 839H44.21L47.696 834.002ZM56.2683 834.002L52.7683 828.976H53.9583L55.8203 831.608C56.2963 832.28 56.6183 832.812 56.8563 833.26L59.7683 828.976H60.9303L57.4863 833.974L60.9863 839H59.7823L57.8783 836.312C57.5423 835.836 57.1363 835.22 56.8843 834.772L53.9583 839H52.7823L56.2683 834.002ZM61.8628 835.752V834.884H65.9228V835.752H61.8628ZM69.0444 828.976V838.076H73.6504V839H68.0364V828.976H69.0444ZM76.8954 839.168C75.4534 839.168 74.5994 838.356 74.5994 837.166C74.5994 835.92 75.5514 835.136 77.1334 835.01L79.3734 834.828V834.604C79.3734 833.274 78.5754 832.854 77.5814 832.854C76.4054 832.854 75.7054 833.386 75.7054 834.296H74.8234C74.8234 832.924 75.9434 832.042 77.6094 832.042C79.1774 832.042 80.3254 832.826 80.3254 834.618V839H79.5134L79.3874 837.81C78.9674 838.664 78.0434 839.168 76.8954 839.168ZM77.1194 838.384C78.5474 838.384 79.3734 837.39 79.3734 835.92V835.556L77.3714 835.71C76.0974 835.822 75.5794 836.382 75.5794 837.138C75.5794 837.964 76.1954 838.384 77.1194 838.384ZM85.8059 832.14V833.008H85.2739C84.0279 833.008 83.2299 833.848 83.2299 835.136V839H82.2639V832.224H83.1739L83.2439 833.274C83.5099 832.546 84.2239 832.07 85.1759 832.07C85.3859 832.07 85.5679 832.084 85.8059 832.14ZM86.505 835.416C86.505 833.568 87.695 832.042 89.683 832.042C90.859 832.042 91.755 832.588 92.189 833.582L92.287 832.224H93.127V838.79C93.127 840.806 91.839 842.122 89.851 842.122C88.115 842.122 86.897 841.142 86.631 839.504H87.597C87.807 840.596 88.647 841.24 89.865 841.24C91.251 841.24 92.175 840.302 92.175 838.888V837.278C91.713 838.23 90.775 838.79 89.613 838.79C87.681 838.79 86.505 837.264 86.505 835.416ZM87.471 835.402C87.471 836.788 88.325 837.922 89.753 837.922C91.223 837.922 92.091 836.858 92.091 835.402C92.091 833.96 91.251 832.896 89.767 832.896C88.311 832.896 87.471 834.03 87.471 835.402ZM97.9848 839.168C95.9968 839.168 94.6668 837.74 94.6668 835.612C94.6668 833.498 95.9828 832.042 97.9148 832.042C99.7488 832.042 100.995 833.344 100.995 835.262V835.738H95.6048C95.6748 837.39 96.5428 838.342 97.9988 838.342C99.1048 838.342 99.8188 837.866 100.071 836.97H100.995C100.631 838.398 99.5808 839.168 97.9848 839.168ZM97.9148 832.868C96.6408 832.868 95.8008 833.708 95.6328 835.038H100.029C100.029 833.736 99.1888 832.868 97.9148 832.868Z" fill="black" fill-opacity="0.6"/>
<rect x="130" y="814" width="97" height="39" rx="19.5" fill="#F0F0F0"/>
<path d="M153.542 833.624H152.744V832.924L155.838 829.872H151.036V828.976H157.112V829.788L154.116 832.77C155.992 832.868 157.336 834.058 157.336 835.878C157.336 837.866 155.88 839.168 153.85 839.168C151.876 839.168 150.546 837.95 150.546 835.948H151.54C151.54 837.39 152.436 838.258 153.85 838.258C155.348 838.258 156.314 837.306 156.314 835.85C156.314 834.478 155.334 833.624 153.542 833.624ZM161.653 834.002L158.153 828.976H159.343L161.205 831.608C161.681 832.28 162.003 832.812 162.241 833.26L165.153 828.976H166.315L162.871 833.974L166.371 839H165.167L163.263 836.312C162.927 835.836 162.521 835.22 162.269 834.772L159.343 839H158.167L161.653 834.002ZM167.248 835.752V834.884H171.308V835.752H167.248ZM174.429 828.976V838.076H179.035V839H173.421V828.976H174.429ZM182.28 839.168C180.838 839.168 179.984 838.356 179.984 837.166C179.984 835.92 180.936 835.136 182.518 835.01L184.758 834.828V834.604C184.758 833.274 183.96 832.854 182.966 832.854C181.79 832.854 181.09 833.386 181.09 834.296H180.208C180.208 832.924 181.328 832.042 182.994 832.042C184.562 832.042 185.71 832.826 185.71 834.618V839H184.898L184.772 837.81C184.352 838.664 183.428 839.168 182.28 839.168ZM182.504 838.384C183.932 838.384 184.758 837.39 184.758 835.92V835.556L182.756 835.71C181.482 835.822 180.964 836.382 180.964 837.138C180.964 837.964 181.58 838.384 182.504 838.384ZM191.191 832.14V833.008H190.659C189.413 833.008 188.615 833.848 188.615 835.136V839H187.649V832.224H188.559L188.629 833.274C188.895 832.546 189.609 832.07 190.561 832.07C190.771 832.07 190.953 832.084 191.191 832.14ZM191.89 835.416C191.89 833.568 193.08 832.042 195.068 832.042C196.244 832.042 197.14 832.588 197.574 833.582L197.672 832.224H198.512V838.79C198.512 840.806 197.224 842.122 195.236 842.122C193.5 842.122 192.282 841.142 192.016 839.504H192.982C193.192 840.596 194.032 841.24 195.25 841.24C196.636 841.24 197.56 840.302 197.56 838.888V837.278C197.098 838.23 196.16 838.79 194.998 838.79C193.066 838.79 191.89 837.264 191.89 835.416ZM192.856 835.402C192.856 836.788 193.71 837.922 195.138 837.922C196.608 837.922 197.476 836.858 197.476 835.402C197.476 833.96 196.636 832.896 195.152 832.896C193.696 832.896 192.856 834.03 192.856 835.402ZM203.37 839.168C201.382 839.168 200.052 837.74 200.052 835.612C200.052 833.498 201.368 832.042 203.3 832.042C205.134 832.042 206.38 833.344 206.38 835.262V835.738H200.99C201.06 837.39 201.928 838.342 203.384 838.342C204.49 838.342 205.204 837.866 205.456 836.97H206.38C206.016 838.398 204.966 839.168 203.37 839.168ZM203.3 832.868C202.026 832.868 201.186 833.708 201.018 835.038H205.414C205.414 833.736 204.574 832.868 203.3 832.868Z" fill="black" fill-opacity="0.6"/>
<rect x="24" y="861" width="98" height="39" rx="19.5" fill="#F0F0F0"/>
<path d="M51.98 883.872H50.804V886H49.824V883.872H44.56V882.976L49.46 875.976H50.804V882.976H51.98V883.872ZM45.652 882.976H49.824V877.012L45.652 882.976ZM56.4733 881.002L52.9733 875.976H54.1633L56.0253 878.608C56.5013 879.28 56.8233 879.812 57.0613 880.26L59.9733 875.976H61.1353L57.6913 880.974L61.1913 886H59.9873L58.0833 883.312C57.7473 882.836 57.3413 882.22 57.0893 881.772L54.1633 886H52.9873L56.4733 881.002ZM62.0679 882.752V881.884H66.1279V882.752H62.0679ZM69.2494 875.976V885.076H73.8554V886H68.2414V875.976H69.2494ZM77.1005 886.168C75.6585 886.168 74.8045 885.356 74.8045 884.166C74.8045 882.92 75.7565 882.136 77.3385 882.01L79.5785 881.828V881.604C79.5785 880.274 78.7805 879.854 77.7865 879.854C76.6105 879.854 75.9105 880.386 75.9105 881.296H75.0285C75.0285 879.924 76.1485 879.042 77.8145 879.042C79.3825 879.042 80.5305 879.826 80.5305 881.618V886H79.7185L79.5925 884.81C79.1725 885.664 78.2485 886.168 77.1005 886.168ZM77.3245 885.384C78.7525 885.384 79.5785 884.39 79.5785 882.92V882.556L77.5765 882.71C76.3025 882.822 75.7845 883.382 75.7845 884.138C75.7845 884.964 76.4005 885.384 77.3245 885.384ZM86.0109 879.14V880.008H85.4789C84.2329 880.008 83.4349 880.848 83.4349 882.136V886H82.4689V879.224H83.3789L83.4489 880.274C83.7149 879.546 84.4289 879.07 85.3809 879.07C85.5909 879.07 85.7729 879.084 86.0109 879.14ZM86.7101 882.416C86.7101 880.568 87.9001 879.042 89.8881 879.042C91.0641 879.042 91.9601 879.588 92.3941 880.582L92.4921 879.224H93.3321V885.79C93.3321 887.806 92.0441 889.122 90.0561 889.122C88.3201 889.122 87.1021 888.142 86.8361 886.504H87.8021C88.0121 887.596 88.8521 888.24 90.0701 888.24C91.4561 888.24 92.3801 887.302 92.3801 885.888V884.278C91.9181 885.23 90.9801 885.79 89.8181 885.79C87.8861 885.79 86.7101 884.264 86.7101 882.416ZM87.6761 882.402C87.6761 883.788 88.5301 884.922 89.9581 884.922C91.4281 884.922 92.2961 883.858 92.2961 882.402C92.2961 880.96 91.4561 879.896 89.9721 879.896C88.5161 879.896 87.6761 881.03 87.6761 882.402ZM98.1898 886.168C96.2018 886.168 94.8718 884.74 94.8718 882.612C94.8718 880.498 96.1878 879.042 98.1198 879.042C99.9538 879.042 101.2 880.344 101.2 882.262V882.738H95.8098C95.8798 884.39 96.7478 885.342 98.2038 885.342C99.3098 885.342 100.024 884.866 100.276 883.97H101.2C100.836 885.398 99.7858 886.168 98.1898 886.168ZM98.1198 879.868C96.8458 879.868 96.0058 880.708 95.8378 882.038H100.234C100.234 880.736 99.3938 879.868 98.1198 879.868Z" fill="black" fill-opacity="0.6"/>
<line x1="24" y1="923.5" x2="271" y2="923.5" stroke="black" stroke-opacity="0.1"/>
<path d="M30.88 969H25.62V954.38H30.74C35.06 954.38 38.04 957.36 38.04 961.72C38.04 966.02 35.12 969 30.88 969ZM30.5 956.74H28.18V966.64H30.64C33.56 966.64 35.34 964.76 35.34 961.72C35.34 958.62 33.52 956.74 30.5 956.74ZM46.2647 959.08V961.34H45.3647C43.6047 961.34 42.5047 962.28 42.5047 964.2V969H40.0647V959.14H42.3647L42.5047 960.58C42.9247 959.6 43.8647 958.94 45.1847 958.94C45.5247 958.94 45.8647 958.98 46.2647 959.08ZM52.0042 969.26C49.0642 969.26 47.0042 967.12 47.0042 964.06C47.0042 960.96 49.0242 958.82 51.9242 958.82C54.8842 958.82 56.7642 960.8 56.7642 963.88V964.62L49.3242 964.64C49.5042 966.38 50.4242 967.26 52.0442 967.26C53.3842 967.26 54.2642 966.74 54.5442 965.8H56.8042C56.3842 967.96 54.5842 969.26 52.0042 969.26ZM51.9442 960.82C50.5042 960.82 49.6242 961.6 49.3842 963.08H54.3442C54.3442 961.72 53.4042 960.82 51.9442 960.82ZM57.957 966H60.277C60.297 966.86 60.937 967.4 62.057 967.4C63.197 967.4 63.817 966.94 63.817 966.22C63.817 965.72 63.557 965.36 62.677 965.16L60.897 964.74C59.117 964.34 58.257 963.5 58.257 961.92C58.257 959.98 59.897 958.82 62.177 958.82C64.397 958.82 65.897 960.1 65.917 962.02H63.597C63.577 961.18 63.017 960.64 62.077 960.64C61.117 960.64 60.557 961.08 60.557 961.82C60.557 962.38 60.997 962.74 61.837 962.94L63.617 963.36C65.277 963.74 66.117 964.5 66.117 966.02C66.117 968.02 64.417 969.26 61.977 969.26C59.517 969.26 57.957 967.94 57.957 966ZM67.2148 966H69.5348C69.5548 966.86 70.1948 967.4 71.3148 967.4C72.4548 967.4 73.0748 966.94 73.0748 966.22C73.0748 965.72 72.8148 965.36 71.9348 965.16L70.1548 964.74C68.3748 964.34 67.5148 963.5 67.5148 961.92C67.5148 959.98 69.1548 958.82 71.4348 958.82C73.6548 958.82 75.1548 960.1 75.1748 962.02H72.8548C72.8348 961.18 72.2748 960.64 71.3348 960.64C70.3748 960.64 69.8148 961.08 69.8148 961.82C69.8148 962.38 70.2548 962.74 71.0948 962.94L72.8748 963.36C74.5348 963.74 75.3748 964.5 75.3748 966.02C75.3748 968.02 73.6748 969.26 71.2348 969.26C68.7748 969.26 67.2148 967.94 67.2148 966ZM82.1433 958.46C82.1433 955.9 84.2633 954.12 87.3433 954.12C90.3033 954.12 92.1833 955.76 92.2633 958.4H89.7033C89.6433 957.14 88.7433 956.4 87.3033 956.4C85.7233 956.4 84.7033 957.16 84.7033 958.38C84.7033 959.42 85.2633 960 86.4833 960.28L88.7833 960.78C91.2833 961.32 92.5033 962.6 92.5033 964.78C92.5033 967.5 90.3833 969.26 87.1633 969.26C84.0433 969.26 82.0033 967.6 81.9433 964.98H84.5033C84.5233 966.22 85.5233 966.96 87.1633 966.96C88.8633 966.96 89.9433 966.22 89.9433 965C89.9433 964.02 89.4433 963.44 88.2433 963.18L85.9233 962.66C83.4433 962.12 82.1433 960.7 82.1433 958.46ZM97.8192 969H95.3792V961.16H93.4792V959.12H95.3792V956.04H97.8192V959.12H99.7392V961.16H97.8192V969ZM100.396 973.58V971.54H101.856C102.816 971.54 103.416 971.32 103.836 970.16L104.116 969.42L100.136 959.12H102.716L105.256 966.32L107.936 959.12H110.456L105.616 971.2C104.876 973.04 103.836 973.8 102.216 973.8C101.536 973.8 100.936 973.72 100.396 973.58ZM114.302 969H111.882V954.12H114.302V969ZM121.282 969.26C118.342 969.26 116.282 967.12 116.282 964.06C116.282 960.96 118.302 958.82 121.202 958.82C124.162 958.82 126.042 960.8 126.042 963.88V964.62L118.602 964.64C118.782 966.38 119.702 967.26 121.322 967.26C122.662 967.26 123.542 966.74 123.822 965.8H126.082C125.662 967.96 123.862 969.26 121.282 969.26ZM121.222 960.82C119.782 960.82 118.902 961.6 118.662 963.08H123.622C123.622 961.72 122.682 960.82 121.222 960.82Z" fill="black"/>
<path d="M257.469 962.969L262.469 957.969C262.539 957.899 262.622 957.844 262.713 957.806C262.804 957.768 262.902 957.749 263.001 957.749C263.099 957.749 263.197 957.768 263.288 957.806C263.379 957.844 263.462 957.899 263.532 957.969L268.532 962.969C268.673 963.11 268.752 963.301 268.752 963.501C268.752 963.7 268.673 963.891 268.532 964.032C268.391 964.173 268.2 964.252 268.001 964.252C267.801 964.252 267.61 964.173 267.469 964.032L263 959.563L258.531 964.033C258.39 964.173 258.199 964.253 257.999 964.253C257.8 964.253 257.609 964.173 257.468 964.033C257.327 963.892 257.248 963.701 257.248 963.501C257.248 963.302 257.327 963.111 257.468 962.97L257.469 962.969Z" fill="black"/>
<path d="M30.064 1008.68C26.864 1008.68 24.688 1006.29 24.688 1002.77C24.688 999.252 26.896 996.852 30.128 996.852C32.592 996.852 34.528 998.34 34.992 1000.61H33.76C33.28 998.964 31.872 997.956 30.08 997.956C27.568 997.956 25.888 999.876 25.888 1002.77C25.888 1005.65 27.568 1007.57 30.08 1007.57C31.888 1007.57 33.328 1006.6 33.824 1005.06H35.056C34.528 1007.22 32.528 1008.68 30.064 1008.68ZM38.876 1008.69C37.228 1008.69 36.252 1007.76 36.252 1006.4C36.252 1004.98 37.34 1004.08 39.148 1003.94L41.708 1003.73V1003.48C41.708 1001.96 40.796 1001.48 39.66 1001.48C38.316 1001.48 37.516 1002.08 37.516 1003.12H36.508C36.508 1001.56 37.788 1000.55 39.692 1000.55C41.484 1000.55 42.796 1001.44 42.796 1003.49V1008.5H41.868L41.724 1007.14C41.244 1008.12 40.188 1008.69 38.876 1008.69ZM39.132 1007.8C40.764 1007.8 41.708 1006.66 41.708 1004.98V1004.56L39.42 1004.74C37.964 1004.87 37.372 1005.51 37.372 1006.37C37.372 1007.32 38.076 1007.8 39.132 1007.8ZM44.3554 1006.32H45.4114C45.4114 1007.22 46.0834 1007.78 47.1714 1007.78C48.3714 1007.78 49.0754 1007.27 49.0754 1006.44C49.0754 1005.8 48.7554 1005.43 47.8434 1005.2L46.5154 1004.87C45.1714 1004.53 44.5154 1003.83 44.5154 1002.77C44.5154 1001.41 45.6514 1000.55 47.3154 1000.55C48.9474 1000.55 50.0034 1001.44 50.0514 1002.88H48.9794C48.9474 1001.99 48.3234 1001.46 47.2834 1001.46C46.1954 1001.46 45.5874 1001.92 45.5874 1002.76C45.5874 1003.35 46.0034 1003.76 46.8514 1003.97L48.1794 1004.31C49.5234 1004.64 50.1314 1005.27 50.1314 1006.39C50.1314 1007.78 48.9474 1008.69 47.1874 1008.69C45.4434 1008.69 44.3554 1007.76 44.3554 1006.32ZM57.3889 1000.76H58.4929V1008.5H57.5329L57.3889 1007.19C56.9569 1008.08 55.8849 1008.69 54.6689 1008.69C52.8449 1008.69 51.8529 1007.44 51.8529 1005.56V1000.74H52.9729V1005.2C52.9729 1007.04 53.7889 1007.7 55.0209 1007.7C56.5089 1007.7 57.3889 1006.71 57.3889 1004.87V1000.76ZM63.0166 1008.69C61.3686 1008.69 60.3926 1007.76 60.3926 1006.4C60.3926 1004.98 61.4806 1004.08 63.2886 1003.94L65.8486 1003.73V1003.48C65.8486 1001.96 64.9366 1001.48 63.8006 1001.48C62.4566 1001.48 61.6566 1002.08 61.6566 1003.12H60.6486C60.6486 1001.56 61.9286 1000.55 63.8326 1000.55C65.6246 1000.55 66.9366 1001.44 66.9366 1003.49V1008.5H66.0086L65.8646 1007.14C65.3846 1008.12 64.3286 1008.69 63.0166 1008.69ZM63.2726 1007.8C64.9046 1007.8 65.8486 1006.66 65.8486 1004.98V1004.56L63.5606 1004.74C62.1046 1004.87 61.5126 1005.51 61.5126 1006.37C61.5126 1007.32 62.2166 1007.8 63.2726 1007.8ZM70.304 1008.5H69.2V996.836H70.304V1008.5Z" fill="black" fill-opacity="0.6"/>
<path d="M261.531 997.47L266.531 1002.47C266.601 1002.54 266.656 1002.62 266.694 1002.71C266.732 1002.8 266.751 1002.9 266.751 1003C266.751 1003.1 266.732 1003.2 266.694 1003.29C266.656 1003.38 266.601 1003.46 266.531 1003.53L261.531 1008.53C261.39 1008.67 261.199 1008.75 260.999 1008.75C260.8 1008.75 260.609 1008.67 260.468 1008.53C260.327 1008.39 260.248 1008.2 260.248 1008C260.248 1007.8 260.327 1007.61 260.468 1007.47L264.938 1003L260.468 998.531C260.327 998.39 260.248 998.199 260.248 998C260.248 997.8 260.327 997.609 260.468 997.468C260.609 997.327 260.8 997.248 260.999 997.248C261.198 997.248 261.389 997.327 261.53 997.468L261.531 997.47Z" fill="black" fill-opacity="0.6"/>
<path d="M31.232 1039.46H26.544V1044.5H25.392V1033.04H32.144V1034.1H26.544V1038.42H31.232V1039.46ZM32.6861 1040.63C32.6861 1038.26 34.3501 1036.55 36.6221 1036.55C38.8941 1036.55 40.5581 1038.26 40.5581 1040.63C40.5581 1042.98 38.8941 1044.69 36.6221 1044.69C34.3501 1044.69 32.6861 1042.98 32.6861 1040.63ZM33.8061 1040.61C33.8061 1042.44 34.9581 1043.7 36.6221 1043.7C38.2701 1043.7 39.4381 1042.44 39.4381 1040.61C39.4381 1038.82 38.2701 1037.54 36.6221 1037.54C34.9581 1037.54 33.8061 1038.82 33.8061 1040.61ZM46.3719 1036.66V1037.65H45.7639C44.3399 1037.65 43.4279 1038.61 43.4279 1040.08V1044.5H42.3239V1036.76H43.3639L43.4439 1037.96C43.7479 1037.12 44.5639 1036.58 45.6519 1036.58C45.8919 1036.58 46.0999 1036.6 46.3719 1036.66ZM48.9435 1044.5H47.8395V1036.76H48.7995L48.9275 1037.86C49.3115 1037.04 50.1755 1036.55 51.2635 1036.55C52.4795 1036.55 53.3915 1037.19 53.7595 1038.2C54.1115 1037.19 55.0555 1036.55 56.3035 1036.55C57.9835 1036.55 59.0875 1037.64 59.0875 1039.43V1044.5H58.0155V1039.65C58.0155 1038.32 57.2795 1037.54 56.0955 1037.54C54.7995 1037.54 54.0315 1038.52 54.0315 1039.72V1044.5H52.9435V1039.64C52.9435 1038.32 52.1915 1037.56 51.0235 1037.56C49.7275 1037.56 48.9435 1038.52 48.9435 1039.7V1044.5ZM63.5323 1044.69C61.8843 1044.69 60.9083 1043.76 60.9083 1042.4C60.9083 1040.98 61.9963 1040.08 63.8043 1039.94L66.3643 1039.73V1039.48C66.3643 1037.96 65.4523 1037.48 64.3163 1037.48C62.9723 1037.48 62.1723 1038.08 62.1723 1039.12H61.1643C61.1643 1037.56 62.4443 1036.55 64.3483 1036.55C66.1403 1036.55 67.4523 1037.44 67.4523 1039.49V1044.5H66.5243L66.3803 1043.14C65.9003 1044.12 64.8443 1044.69 63.5323 1044.69ZM63.7883 1043.8C65.4203 1043.8 66.3643 1042.66 66.3643 1040.98V1040.56L64.0763 1040.74C62.6203 1040.87 62.0283 1041.51 62.0283 1042.37C62.0283 1043.32 62.7323 1043.8 63.7883 1043.8ZM70.8196 1044.5H69.7156V1032.84H70.8196V1044.5Z" fill="black" fill-opacity="0.6"/>
<path d="M261.531 1033.47L266.531 1038.47C266.601 1038.54 266.656 1038.62 266.694 1038.71C266.732 1038.8 266.751 1038.9 266.751 1039C266.751 1039.1 266.732 1039.2 266.694 1039.29C266.656 1039.38 266.601 1039.46 266.531 1039.53L261.531 1044.53C261.39 1044.67 261.199 1044.75 260.999 1044.75C260.8 1044.75 260.609 1044.67 260.468 1044.53C260.327 1044.39 260.248 1044.2 260.248 1044C260.248 1043.8 260.327 1043.61 260.468 1043.47L264.938 1039L260.468 1034.53C260.327 1034.39 260.248 1034.2 260.248 1034C260.248 1033.8 260.327 1033.61 260.468 1033.47C260.609 1033.33 260.8 1033.25 260.999 1033.25C261.198 1033.25 261.389 1033.33 261.53 1033.47L261.531 1033.47Z" fill="black" fill-opacity="0.6"/>
<path d="M29.76 1076.29H26.544V1080.5H25.392V1069.04H29.76C31.968 1069.04 33.36 1070.48 33.36 1072.64C33.36 1074.72 31.952 1076.29 29.76 1076.29ZM29.6 1070.08H26.544V1075.25H29.536C31.2 1075.25 32.16 1074.2 32.16 1072.63C32.16 1071.04 31.184 1070.08 29.6 1070.08ZM36.8916 1080.69C35.2436 1080.69 34.2676 1079.76 34.2676 1078.4C34.2676 1076.98 35.3556 1076.08 37.1636 1075.94L39.7236 1075.73V1075.48C39.7236 1073.96 38.8116 1073.48 37.6756 1073.48C36.3316 1073.48 35.5316 1074.08 35.5316 1075.12H34.5236C34.5236 1073.56 35.8036 1072.55 37.7076 1072.55C39.4996 1072.55 40.8116 1073.44 40.8116 1075.49V1080.5H39.8836L39.7396 1079.14C39.2596 1080.12 38.2036 1080.69 36.8916 1080.69ZM37.1476 1079.8C38.7796 1079.8 39.7236 1078.66 39.7236 1076.98V1076.56L37.4356 1076.74C35.9796 1076.87 35.3876 1077.51 35.3876 1078.37C35.3876 1079.32 36.0916 1079.8 37.1476 1079.8ZM47.075 1072.66V1073.65H46.467C45.043 1073.65 44.131 1074.61 44.131 1076.08V1080.5H43.027V1072.76H44.067L44.147 1073.96C44.451 1073.12 45.267 1072.58 46.355 1072.58C46.595 1072.58 46.803 1072.6 47.075 1072.66ZM50.6311 1080.5H49.5431V1073.68H47.9911V1072.76H49.5431V1070.31H50.6311V1072.76H52.1831V1073.68H50.6311V1080.5ZM52.8368 1083.88V1082.96H53.6848C54.3568 1082.96 55.0288 1082.92 55.4128 1081.88L55.7488 1080.96L52.6128 1072.76H53.7808L56.2768 1079.51L58.7248 1072.76H59.8608L56.3088 1082.28C55.8608 1083.49 55.1088 1083.99 54.0048 1083.99C53.5408 1083.99 53.1888 1083.96 52.8368 1083.88Z" fill="black" fill-opacity="0.6"/>
<path d="M261.531 1069.47L266.531 1074.47C266.601 1074.54 266.656 1074.62 266.694 1074.71C266.732 1074.8 266.751 1074.9 266.751 1075C266.751 1075.1 266.732 1075.2 266.694 1075.29C266.656 1075.38 266.601 1075.46 266.531 1075.53L261.531 1080.53C261.39 1080.67 261.199 1080.75 260.999 1080.75C260.8 1080.75 260.609 1080.67 260.468 1080.53C260.327 1080.39 260.248 1080.2 260.248 1080C260.248 1079.8 260.327 1079.61 260.468 1079.47L264.938 1075L260.468 1070.53C260.327 1070.39 260.248 1070.2 260.248 1070C260.248 1069.8 260.327 1069.61 260.468 1069.47C260.609 1069.33 260.8 1069.25 260.999 1069.25C261.198 1069.25 261.389 1069.33 261.53 1069.47L261.531 1069.47Z" fill="black" fill-opacity="0.6"/>
<path d="M30.192 1105.94C27.552 1105.94 25.888 1107.89 25.888 1110.82C25.888 1113.8 27.648 1115.6 30.224 1115.6C32.144 1115.6 34.016 1114.68 34.016 1111.92V1111.33H29.872V1110.31H35.104V1116.52H34.192L34.08 1114.69C33.472 1115.83 32.032 1116.69 30.176 1116.69C26.928 1116.69 24.688 1114.36 24.688 1110.82C24.688 1107.32 26.928 1104.85 30.208 1104.85C32.624 1104.85 34.496 1106.23 34.944 1108.31H33.696C33.216 1106.74 31.872 1105.94 30.192 1105.94ZM36.368 1119.88V1118.96H37.216C37.888 1118.96 38.56 1118.92 38.944 1117.88L39.28 1116.96L36.144 1108.76H37.312L39.808 1115.51L42.256 1108.76H43.392L39.84 1118.28C39.392 1119.49 38.64 1119.99 37.536 1119.99C37.072 1119.99 36.72 1119.96 36.368 1119.88ZM45.7873 1116.5H44.6833V1108.76H45.6432L45.7713 1109.86C46.1553 1109.04 47.0193 1108.55 48.1073 1108.55C49.3233 1108.55 50.2353 1109.19 50.6033 1110.2C50.9553 1109.19 51.8993 1108.55 53.1473 1108.55C54.8273 1108.55 55.9313 1109.64 55.9313 1111.43V1116.5H54.8593V1111.65C54.8593 1110.32 54.1233 1109.54 52.9392 1109.54C51.6433 1109.54 50.8753 1110.52 50.8753 1111.72V1116.5H49.7873V1111.64C49.7873 1110.32 49.0353 1109.56 47.8673 1109.56C46.5713 1109.56 45.7873 1110.52 45.7873 1111.7V1116.5Z" fill="black" fill-opacity="0.6"/>
<path d="M261.531 1105.47L266.531 1110.47C266.601 1110.54 266.656 1110.62 266.694 1110.71C266.732 1110.8 266.751 1110.9 266.751 1111C266.751 1111.1 266.732 1111.2 266.694 1111.29C266.656 1111.38 266.601 1111.46 266.531 1111.53L261.531 1116.53C261.39 1116.67 261.199 1116.75 260.999 1116.75C260.8 1116.75 260.609 1116.67 260.468 1116.53C260.327 1116.39 260.248 1116.2 260.248 1116C260.248 1115.8 260.327 1115.61 260.468 1115.47L264.938 1111L260.468 1106.53C260.327 1106.39 260.248 1106.2 260.248 1106C260.248 1105.8 260.327 1105.61 260.468 1105.47C260.609 1105.33 260.8 1105.25 260.999 1105.25C261.198 1105.25 261.389 1105.33 261.53 1105.47L261.531 1105.47Z" fill="black" fill-opacity="0.6"/>
<rect x="24" y="1143" width="247" height="48" rx="24" fill="black"/>
<path d="M113.096 1172.5H111.668L115.364 1162.38H116.89L120.6 1172.5H119.158L118.248 1169.98H113.992L113.096 1172.5ZM115.952 1164.56L114.412 1168.79H117.842L116.288 1164.56C116.218 1164.37 116.148 1164.13 116.12 1163.97C116.092 1164.11 116.022 1164.35 115.952 1164.56ZM121.722 1175.57V1165.65H122.912L123.01 1166.89C123.472 1165.95 124.396 1165.46 125.488 1165.46C127.448 1165.46 128.666 1166.93 128.666 1169.03C128.666 1171.11 127.518 1172.68 125.488 1172.68C124.396 1172.68 123.486 1172.22 123.038 1171.38V1175.57H121.722ZM123.052 1169.08C123.052 1170.48 123.864 1171.49 125.208 1171.49C126.552 1171.49 127.35 1170.48 127.35 1169.08C127.35 1167.67 126.552 1166.66 125.208 1166.66C123.864 1166.66 123.052 1167.66 123.052 1169.08ZM130.116 1175.57V1165.65H131.306L131.404 1166.89C131.866 1165.95 132.79 1165.46 133.882 1165.46C135.842 1165.46 137.06 1166.93 137.06 1169.03C137.06 1171.11 135.912 1172.68 133.882 1172.68C132.79 1172.68 131.88 1172.22 131.432 1171.38V1175.57H130.116ZM131.446 1169.08C131.446 1170.48 132.258 1171.49 133.602 1171.49C134.946 1171.49 135.744 1170.48 135.744 1169.08C135.744 1167.67 134.946 1166.66 133.602 1166.66C132.258 1166.66 131.446 1167.66 131.446 1169.08ZM139.855 1172.5H138.539V1162.2H139.855V1172.5ZM141.134 1175.57V1174.49H142.016C142.646 1174.49 143.15 1174.39 143.472 1173.52L143.71 1172.86L140.952 1165.65H142.338L144.326 1171.17L146.356 1165.65H147.714L144.48 1174.04C144.018 1175.22 143.332 1175.71 142.282 1175.71C141.848 1175.71 141.484 1175.65 141.134 1175.57ZM158.165 1168.2H154.189V1172.5H152.817V1162.38H158.921V1163.64H154.189V1166.96H158.165V1168.2ZM161.002 1164.03C160.526 1164.03 160.134 1163.64 160.134 1163.16C160.134 1162.67 160.526 1162.29 161.002 1162.29C161.478 1162.29 161.87 1162.67 161.87 1163.16C161.87 1163.64 161.478 1164.03 161.002 1164.03ZM160.358 1172.5V1165.65H161.674V1172.5H160.358ZM164.929 1172.5H163.613V1162.2H164.929V1172.5ZM168.798 1172.5H167.482V1166.76H166.138V1165.65H167.482V1163.51H168.798V1165.65H170.142V1166.76H168.798V1172.5ZM174.209 1172.67C172.193 1172.67 170.807 1171.21 170.807 1169.08C170.807 1166.94 172.165 1165.46 174.153 1165.46C176.099 1165.46 177.373 1166.8 177.373 1168.83V1169.32L172.081 1169.34C172.179 1170.78 172.935 1171.58 174.237 1171.58C175.259 1171.58 175.931 1171.16 176.155 1170.37H177.387C177.051 1171.84 175.903 1172.67 174.209 1172.67ZM174.153 1166.56C173.005 1166.56 172.277 1167.25 172.109 1168.45H176.057C176.057 1167.32 175.315 1166.56 174.153 1166.56ZM182.763 1165.6V1166.8H182.175C180.929 1166.8 180.159 1167.56 180.159 1168.87V1172.5H178.843V1165.67H180.075L180.159 1166.7C180.439 1165.99 181.125 1165.51 182.063 1165.51C182.301 1165.51 182.497 1165.54 182.763 1165.6Z" fill="white"/>
</svg>
