<svg width="505" height="458" viewBox="0 0 505 458" fill="none" xmlns="http://www.w3.org/2000/svg">
<rect x="0.5" y="0.5" width="504" height="457" rx="19.5" stroke="black" stroke-opacity="0.1"/>
<path d="M41.952 36.216C41.952 41.544 38.448 45.288 33.408 45.288C28.392 45.288 24.936 41.568 24.936 36.216C24.936 30.888 28.416 27.144 33.432 27.144C38.448 27.144 41.952 30.864 41.952 36.216ZM38.712 36.216C38.712 32.472 36.648 30.096 33.432 30.096C30.216 30.096 28.152 32.472 28.152 36.216C28.152 39.96 30.216 42.336 33.432 42.336C36.648 42.336 38.712 39.912 38.712 36.216ZM51.8192 33.096V35.808H50.7392C48.6272 35.808 47.3072 36.936 47.3072 39.24V45H44.3792V33.168H47.1392L47.3072 34.896C47.8112 33.72 48.9392 32.928 50.5232 32.928C50.9312 32.928 51.3392 32.976 51.8192 33.096ZM58.2746 45.312C54.8426 45.312 52.7066 42.792 52.7066 39.12C52.7066 35.424 54.8666 32.784 58.4426 32.784C60.0986 32.784 61.5626 33.48 62.3066 34.656V27.144H65.2106V45H62.5226L62.3306 43.152C61.6106 44.52 60.0746 45.312 58.2746 45.312ZM58.9226 42.624C60.9626 42.624 62.2826 41.16 62.2826 39.024C62.2826 36.888 60.9626 35.4 58.9226 35.4C56.8826 35.4 55.6346 36.912 55.6346 39.024C55.6346 41.136 56.8826 42.624 58.9226 42.624ZM73.566 45.312C70.038 45.312 67.566 42.744 67.566 39.072C67.566 35.352 69.99 32.784 73.47 32.784C77.022 32.784 79.278 35.16 79.278 38.856V39.744L70.35 39.768C70.566 41.856 71.67 42.912 73.614 42.912C75.222 42.912 76.278 42.288 76.614 41.16H79.326C78.822 43.752 76.662 45.312 73.566 45.312ZM73.494 35.184C71.766 35.184 70.71 36.12 70.422 37.896H76.374C76.374 36.264 75.246 35.184 73.494 35.184ZM89.0614 33.096V35.808H87.9814C85.8694 35.808 84.5494 36.936 84.5494 39.24V45H81.6214V33.168H84.3814L84.5494 34.896C85.0534 33.72 86.1814 32.928 87.7654 32.928C88.1734 32.928 88.5814 32.976 89.0614 33.096ZM96.936 32.352C96.936 29.28 99.48 27.144 103.176 27.144C106.728 27.144 108.984 29.112 109.08 32.28H106.008C105.936 30.768 104.856 29.88 103.128 29.88C101.232 29.88 100.008 30.792 100.008 32.256C100.008 33.504 100.68 34.2 102.144 34.536L104.904 35.136C107.904 35.784 109.368 37.32 109.368 39.936C109.368 43.2 106.824 45.312 102.96 45.312C99.216 45.312 96.768 43.32 96.696 40.176H99.768C99.792 41.664 100.992 42.552 102.96 42.552C105 42.552 106.296 41.664 106.296 40.2C106.296 39.024 105.696 38.328 104.256 38.016L101.472 37.392C98.496 36.744 96.936 35.04 96.936 32.352ZM119.755 33.144H122.683V45H119.971L119.755 43.416C119.035 44.544 117.499 45.312 115.915 45.312C113.179 45.312 111.571 43.464 111.571 40.56V33.144H114.499V39.528C114.499 41.784 115.387 42.696 117.019 42.696C118.867 42.696 119.755 41.616 119.755 39.36V33.144ZM128.635 45H125.707V33.144H128.395L128.635 34.536C129.235 33.552 130.435 32.784 132.139 32.784C133.939 32.784 135.187 33.672 135.811 35.04C136.411 33.672 137.803 32.784 139.603 32.784C142.483 32.784 144.067 34.512 144.067 37.248V45H141.163V38.016C141.163 36.312 140.251 35.424 138.859 35.424C137.443 35.424 136.363 36.336 136.363 38.28V45H133.435V37.992C133.435 36.336 132.547 35.448 131.155 35.448C129.763 35.448 128.635 36.36 128.635 38.28V45ZM149.87 45H146.942V33.144H149.63L149.87 34.536C150.47 33.552 151.67 32.784 153.374 32.784C155.174 32.784 156.422 33.672 157.046 35.04C157.646 33.672 159.038 32.784 160.838 32.784C163.718 32.784 165.302 34.512 165.302 37.248V45H162.398V38.016C162.398 36.312 161.486 35.424 160.094 35.424C158.678 35.424 157.598 36.336 157.598 38.28V45H154.67V37.992C154.67 36.336 153.782 35.448 152.39 35.448C150.998 35.448 149.87 36.36 149.87 38.28V45ZM171.704 45.312C169.184 45.312 167.648 43.848 167.648 41.616C167.648 39.432 169.232 38.064 172.04 37.848L175.592 37.584V37.32C175.592 35.712 174.632 35.064 173.144 35.064C171.416 35.064 170.456 35.784 170.456 37.032H167.96C167.96 34.464 170.072 32.784 173.288 32.784C176.48 32.784 178.448 34.512 178.448 37.8V45H175.88L175.664 43.248C175.16 44.472 173.552 45.312 171.704 45.312ZM172.664 43.104C174.464 43.104 175.616 42.024 175.616 40.2V39.576L173.144 39.768C171.32 39.936 170.624 40.536 170.624 41.496C170.624 42.576 171.344 43.104 172.664 43.104ZM188.765 33.096V35.808H187.685C185.573 35.808 184.253 36.936 184.253 39.24V45H181.325V33.168H184.085L184.253 34.896C184.757 33.72 185.885 32.928 187.469 32.928C187.877 32.928 188.285 32.976 188.765 33.096ZM190.066 50.496V48.048H191.818C192.97 48.048 193.69 47.784 194.194 46.392L194.53 45.504L189.754 33.144H192.85L195.898 41.784L199.114 33.144H202.138L196.33 47.64C195.442 49.848 194.194 50.76 192.25 50.76C191.434 50.76 190.714 50.664 190.066 50.496Z" fill="black"/>
<path d="M24.88 86.4C24.88 84 26.8 82.42 29.68 82.42C32.26 82.42 33.96 83.86 34.18 86.26H32.72C32.56 84.64 31.46 83.72 29.66 83.72C27.64 83.72 26.32 84.76 26.32 86.38C26.32 87.64 27.06 88.44 28.56 88.82L31.02 89.42C33.26 89.96 34.42 91.24 34.42 93.18C34.42 95.66 32.5 97.24 29.54 97.24C26.76 97.24 24.88 95.78 24.7 93.44H26.18C26.26 94.94 27.58 95.92 29.54 95.92C31.64 95.92 32.98 94.9 32.98 93.26C32.98 91.98 32.26 91.14 30.72 90.78L28.3 90.18C26.06 89.64 24.88 88.36 24.88 86.4ZM43.5095 87.32H44.8895V97H43.6895L43.5095 95.36C42.9695 96.48 41.6295 97.24 40.1095 97.24C37.8295 97.24 36.5895 95.68 36.5895 93.32V87.3H37.9895V92.88C37.9895 95.18 39.0095 96 40.5495 96C42.4095 96 43.5095 94.76 43.5095 92.46V87.32ZM48.9642 97H47.7642V82.42H49.1442V89.2C49.8242 87.78 51.1442 87.06 52.7842 87.06C55.6042 87.06 57.2442 89.26 57.2442 92.18C57.2442 95.08 55.5642 97.24 52.7442 97.24C51.1242 97.24 49.7842 96.52 49.1042 95.02L48.9642 97ZM49.1642 92.14C49.1642 94.38 50.4042 95.98 52.5242 95.98C54.6242 95.98 55.8442 94.38 55.8442 92.14C55.8442 89.92 54.6242 88.3 52.5242 88.3C50.4042 88.3 49.1642 89.92 49.1642 92.14ZM61.5663 97H60.2063V88.48H58.2663V87.32H60.2063V84.26H61.5663V87.32H63.5063V88.48H61.5663V97ZM64.5256 92.16C64.5256 89.2 66.6056 87.06 69.4456 87.06C72.2856 87.06 74.3656 89.2 74.3656 92.16C74.3656 95.1 72.2856 97.24 69.4456 97.24C66.6056 97.24 64.5256 95.1 64.5256 92.16ZM65.9256 92.14C65.9256 94.42 67.3656 96 69.4456 96C71.5056 96 72.9656 94.42 72.9656 92.14C72.9656 89.9 71.5056 88.3 69.4456 88.3C67.3656 88.3 65.9256 89.9 65.9256 92.14ZM78.6952 97H77.3352V88.48H75.3952V87.32H77.3352V84.26H78.6952V87.32H80.6352V88.48H78.6952V97ZM85.0559 97.24C82.9959 97.24 81.7759 96.08 81.7759 94.38C81.7759 92.6 83.1359 91.48 85.3959 91.3L88.5959 91.04V90.72C88.5959 88.82 87.4559 88.22 86.0359 88.22C84.3559 88.22 83.3559 88.98 83.3559 90.28H82.0959C82.0959 88.32 83.6959 87.06 86.0759 87.06C88.3159 87.06 89.9559 88.18 89.9559 90.74V97H88.7959L88.6159 95.3C88.0159 96.52 86.6959 97.24 85.0559 97.24ZM85.3759 96.12C87.4159 96.12 88.5959 94.7 88.5959 92.6V92.08L85.7359 92.3C83.9159 92.46 83.1759 93.26 83.1759 94.34C83.1759 95.52 84.0559 96.12 85.3759 96.12ZM94.1652 97H92.7852V82.42H94.1652V97Z" fill="black" fill-opacity="0.6"/>
<path d="M438.055 98.9V97.24C435.275 97.04 433.495 95.42 433.435 92.98H435.995C436.015 94.12 436.755 94.84 438.055 95V90.74L437.415 90.6C434.895 90.06 433.635 88.66 433.635 86.46C433.635 84.12 435.395 82.44 438.055 82.16V80.46H439.595V82.16C442.115 82.42 443.675 84 443.755 86.4H441.275C441.235 85.32 440.635 84.62 439.595 84.4V88.7L440.275 88.86C442.835 89.42 443.995 90.66 443.995 92.78C443.995 95.22 442.275 96.9 439.595 97.2V98.9H438.055ZM437.975 88.34L438.055 88.36V84.38C436.855 84.58 436.135 85.3 436.135 86.38C436.135 87.44 436.695 88.06 437.975 88.34ZM439.735 91.1L439.595 91.06V94.96C440.795 94.72 441.515 94.02 441.515 93C441.515 91.98 440.935 91.36 439.735 91.1ZM450.591 97.24C447.531 97.24 445.511 95.28 445.511 92.32H448.051C448.051 93.98 449.031 94.96 450.651 94.96C452.371 94.96 453.471 93.84 453.471 92.06C453.471 90.36 452.451 89.2 450.691 89.2C449.571 89.2 448.551 89.76 448.031 90.52L445.771 90.04L447.571 82.38H455.191V84.74H449.411L448.631 87.78C449.331 87.32 450.211 87.06 451.211 87.06C454.131 87.06 456.071 89.04 456.071 91.92C456.071 95.08 453.851 97.24 450.591 97.24ZM459.624 86.68L462.784 82.38H465.704L462.204 87.04C462.564 86.94 462.944 86.88 463.304 86.88C466.324 86.88 468.364 89 468.364 91.96C468.364 95.08 466.044 97.26 462.924 97.26C459.764 97.26 457.404 94.94 457.404 91.94C457.404 90.18 457.984 88.9 459.624 86.68ZM460.024 91.96C460.024 93.74 461.204 94.98 462.924 94.98C464.584 94.98 465.784 93.74 465.784 91.96C465.784 90.2 464.604 88.98 462.924 88.98C461.184 88.98 460.024 90.2 460.024 91.96ZM474.908 97.24C471.848 97.24 469.828 95.28 469.828 92.32H472.368C472.368 93.98 473.348 94.96 474.968 94.96C476.688 94.96 477.788 93.84 477.788 92.06C477.788 90.36 476.768 89.2 475.008 89.2C473.888 89.2 472.868 89.76 472.348 90.52L470.088 90.04L471.888 82.38H479.508V84.74H473.728L472.948 87.78C473.648 87.32 474.528 87.06 475.528 87.06C478.448 87.06 480.388 89.04 480.388 91.92C480.388 95.08 478.168 97.24 474.908 97.24Z" fill="black"/>
<path d="M30.1 144H25.74V129.68H30.06C34.38 129.68 37.26 132.56 37.26 136.84C37.26 141.12 34.4 144 30.1 144ZM30 131H27.18V142.68H30.04C33.54 142.68 35.78 140.4 35.78 136.84C35.78 133.26 33.54 131 30 131ZM40.2411 131.66C39.6811 131.66 39.2211 131.2 39.2211 130.64C39.2211 130.08 39.6811 129.6 40.2411 129.6C40.8011 129.6 41.2811 130.08 41.2811 130.64C41.2811 131.2 40.8011 131.66 40.2411 131.66ZM39.5611 144V134.32H40.9411V144H39.5611ZM42.9989 141.28H44.3189C44.3189 142.4 45.1589 143.1 46.5189 143.1C48.0189 143.1 48.8989 142.46 48.8989 141.42C48.8989 140.62 48.4989 140.16 47.3589 139.88L45.6989 139.46C44.0189 139.04 43.1989 138.16 43.1989 136.84C43.1989 135.14 44.6189 134.06 46.6989 134.06C48.7389 134.06 50.0589 135.18 50.1189 136.98H48.7789C48.7389 135.86 47.9589 135.2 46.6589 135.2C45.2989 135.2 44.5389 135.78 44.5389 136.82C44.5389 137.56 45.0589 138.08 46.1189 138.34L47.7789 138.76C49.4589 139.18 50.2189 139.96 50.2189 141.36C50.2189 143.1 48.7389 144.24 46.5389 144.24C44.3589 144.24 42.9989 143.08 42.9989 141.28ZM51.8108 139.18C51.8108 136.14 53.6708 134.06 56.4908 134.06C58.7308 134.06 60.3708 135.36 60.7508 137.36H59.3708C59.0108 136.02 57.8508 135.28 56.5108 135.28C54.5508 135.28 53.1708 136.78 53.1708 139.16C53.1708 141.46 54.4508 143 56.4108 143C57.8508 143 59.0108 142.2 59.3908 140.96H60.7908C60.3308 142.94 58.6108 144.24 56.4108 144.24C53.6708 144.24 51.8108 142.22 51.8108 139.18ZM62.2014 139.16C62.2014 136.2 64.2814 134.06 67.1214 134.06C69.9614 134.06 72.0414 136.2 72.0414 139.16C72.0414 142.1 69.9614 144.24 67.1214 144.24C64.2814 144.24 62.2014 142.1 62.2014 139.16ZM63.6014 139.14C63.6014 141.42 65.0414 143 67.1214 143C69.1814 143 70.6414 141.42 70.6414 139.14C70.6414 136.9 69.1814 135.3 67.1214 135.3C65.0414 135.3 63.6014 136.9 63.6014 139.14ZM80.8142 134.32H82.1942V144H80.9942L80.8142 142.36C80.2742 143.48 78.9342 144.24 77.4142 144.24C75.1342 144.24 73.8942 142.68 73.8942 140.32V134.3H75.2942V139.88C75.2942 142.18 76.3142 143 77.8542 143C79.7142 143 80.8142 141.76 80.8142 139.46V134.32ZM86.4489 144H85.0689V134.32H86.2689L86.4689 136C87.1089 134.76 88.3889 134.06 89.7889 134.06C92.4489 134.06 93.5489 135.64 93.5489 138.08V144H92.1689V138.38C92.1689 136.12 91.1489 135.32 89.5489 135.32C87.5689 135.32 86.4489 136.76 86.4489 138.94V144ZM98.5194 144H97.1594V135.48H95.2194V134.32H97.1594V131.26H98.5194V134.32H100.459V135.48H98.5194V144ZM111.443 147.14H110.183C108.503 144.84 107.403 141.44 107.403 138C107.403 134.7 108.463 131.26 110.183 128.88H111.443C109.903 131.04 108.823 134.4 108.823 138C108.823 141.52 109.863 144.94 111.443 147.14ZM112.721 139.36V138.12H118.521V139.36H112.721ZM129.067 144H119.627V142.86L124.207 138.86C126.847 136.56 127.527 135.56 127.527 133.86C127.527 131.92 126.367 130.74 124.467 130.74C122.487 130.74 121.187 132.18 121.127 134.4H119.687C119.767 131.4 121.667 129.42 124.487 129.42C127.187 129.42 128.987 131.16 128.987 133.78C128.987 135.86 128.047 137.24 125.187 139.74L121.847 142.66H129.067V144ZM131.057 136.84C131.057 132.4 133.237 129.4 136.797 129.4C140.337 129.4 142.517 132.4 142.517 136.84C142.517 141.3 140.377 144.26 136.797 144.26C133.197 144.26 131.057 141.3 131.057 136.84ZM132.477 136.84C132.477 140.56 134.057 142.96 136.797 142.96C139.537 142.96 141.117 140.56 141.117 136.84C141.117 133.1 139.537 130.72 136.797 130.72C134.057 130.72 132.477 133.1 132.477 136.84ZM151.589 132.96C151.589 135.02 150.129 136.5 148.089 136.5C146.049 136.5 144.569 135.02 144.569 132.96C144.569 130.9 146.049 129.4 148.089 129.4C150.129 129.4 151.589 130.9 151.589 132.96ZM158.849 129.68L147.969 144H146.529L157.389 129.68H158.849ZM150.389 132.96C150.389 131.54 149.449 130.56 148.089 130.56C146.709 130.56 145.769 131.54 145.769 132.96C145.769 134.36 146.729 135.36 148.089 135.36C149.429 135.36 150.389 134.36 150.389 132.96ZM160.829 140.72C160.829 142.78 159.369 144.26 157.329 144.26C155.289 144.26 153.809 142.78 153.809 140.72C153.809 138.66 155.289 137.16 157.329 137.16C159.369 137.16 160.829 138.66 160.829 140.72ZM159.629 140.72C159.629 139.3 158.689 138.32 157.329 138.32C155.949 138.32 155.009 139.3 155.009 140.72C155.009 142.12 155.969 143.1 157.329 143.1C158.669 143.1 159.629 142.12 159.629 140.72ZM163.053 147.14H161.793C163.373 144.94 164.433 141.52 164.433 138C164.433 134.4 163.333 131.04 161.793 128.88H163.053C164.793 131.26 165.833 134.7 165.833 138C165.833 141.44 164.733 144.84 163.053 147.14Z" fill="black" fill-opacity="0.6"/>
<path d="M434.447 139.74V137.58H440.887V139.74H434.447ZM447.313 145.9V144.24C444.533 144.04 442.753 142.42 442.693 139.98H445.253C445.273 141.12 446.013 141.84 447.313 142V137.74L446.673 137.6C444.153 137.06 442.893 135.66 442.893 133.46C442.893 131.12 444.653 129.44 447.313 129.16V127.46H448.853V129.16C451.373 129.42 452.933 131 453.013 133.4H450.533C450.493 132.32 449.893 131.62 448.853 131.4V135.7L449.533 135.86C452.093 136.42 453.253 137.66 453.253 139.78C453.253 142.22 451.533 143.9 448.853 144.2V145.9H447.313ZM447.233 135.34L447.313 135.36V131.38C446.113 131.58 445.393 132.3 445.393 133.38C445.393 134.44 445.953 135.06 447.233 135.34ZM448.993 138.1L448.853 138.06V141.96C450.053 141.72 450.773 141.02 450.773 140C450.773 138.98 450.193 138.36 448.993 138.1ZM457.829 131.68H454.629V129.38H460.289V144H457.829V131.68ZM465.525 131.68H462.325V129.38H467.985V144H465.525V131.68ZM474.793 136.76H473.013V135.1L476.773 131.64H470.693V129.38H479.973V131.42L476.413 134.7C478.653 135.14 480.393 136.78 480.393 139.36C480.393 142.36 478.053 144.26 475.093 144.26C472.233 144.26 470.013 142.5 470.013 139.34H472.533C472.533 141.02 473.573 141.98 475.133 141.98C476.733 141.98 477.793 140.94 477.793 139.32C477.793 137.84 476.833 136.76 474.793 136.76Z" fill="#FF3333"/>
<path d="M30.1 191H25.74V176.68H30.06C34.38 176.68 37.26 179.56 37.26 183.84C37.26 188.12 34.4 191 30.1 191ZM30 178H27.18V189.68H30.04C33.54 189.68 35.78 187.4 35.78 183.84C35.78 180.26 33.54 178 30 178ZM43.6211 191.24C40.7811 191.24 38.8811 189.2 38.8811 186.16C38.8811 183.14 40.7611 181.06 43.5211 181.06C46.1411 181.06 47.9211 182.92 47.9211 185.66V186.34H40.2211C40.3211 188.7 41.5611 190.06 43.6411 190.06C45.2211 190.06 46.2411 189.38 46.6011 188.1H47.9211C47.4011 190.14 45.9011 191.24 43.6211 191.24ZM43.5211 182.24C41.7011 182.24 40.5011 183.44 40.2611 185.34H46.5411C46.5411 183.48 45.3411 182.24 43.5211 182.24ZM51.5675 191H50.1875V176.42H51.5675V191ZM55.1825 178.66C54.6225 178.66 54.1625 178.2 54.1625 177.64C54.1625 177.08 54.6225 176.6 55.1825 176.6C55.7425 176.6 56.2225 177.08 56.2225 177.64C56.2225 178.2 55.7425 178.66 55.1825 178.66ZM54.5025 191V181.32H55.8825V191H54.5025ZM61.4603 191L57.5003 181.32H58.9803L61.4803 187.56C61.7403 188.26 62.0003 188.92 62.1803 189.56C62.3603 188.9 62.6203 188.26 62.9003 187.56L65.4403 181.32H66.8603L62.8403 191H61.4603ZM72.1172 191.24C69.2772 191.24 67.3772 189.2 67.3772 186.16C67.3772 183.14 69.2572 181.06 72.0172 181.06C74.6372 181.06 76.4172 182.92 76.4172 185.66V186.34H68.7172C68.8172 188.7 70.0572 190.06 72.1372 190.06C73.7172 190.06 74.7372 189.38 75.0972 188.1H76.4172C75.8972 190.14 74.3972 191.24 72.1172 191.24ZM72.0172 182.24C70.1972 182.24 68.9972 183.44 68.7572 185.34H75.0372C75.0372 183.48 73.8372 182.24 72.0172 182.24ZM83.6836 181.2V182.44H82.9236C81.1436 182.44 80.0036 183.64 80.0036 185.48V191H78.6236V181.32H79.9236L80.0236 182.82C80.4036 181.78 81.4236 181.1 82.7836 181.1C83.0836 181.1 83.3436 181.12 83.6836 181.2ZM84.8311 195.22V194.08H85.8911C86.7311 194.08 87.5711 194.02 88.0511 192.72L88.4711 191.58L84.5511 181.32H86.0111L89.1311 189.76L92.1911 181.32H93.6111L89.1711 193.22C88.6111 194.74 87.6711 195.36 86.2911 195.36C85.7111 195.36 85.2711 195.32 84.8311 195.22ZM108.372 184.7H102.512V191H101.072V176.68H109.512V178H102.512V183.4H108.372V184.7ZM114.93 191.24C112.09 191.24 110.19 189.2 110.19 186.16C110.19 183.14 112.07 181.06 114.83 181.06C117.45 181.06 119.23 182.92 119.23 185.66V186.34H111.53C111.63 188.7 112.87 190.06 114.95 190.06C116.53 190.06 117.55 189.38 117.91 188.1H119.23C118.71 190.14 117.21 191.24 114.93 191.24ZM114.83 182.24C113.01 182.24 111.81 183.44 111.57 185.34H117.85C117.85 183.48 116.65 182.24 114.83 182.24ZM125.496 191.24C122.656 191.24 120.756 189.2 120.756 186.16C120.756 183.14 122.636 181.06 125.396 181.06C128.016 181.06 129.796 182.92 129.796 185.66V186.34H122.096C122.196 188.7 123.436 190.06 125.516 190.06C127.096 190.06 128.116 189.38 128.476 188.1H129.796C129.276 190.14 127.776 191.24 125.496 191.24ZM125.396 182.24C123.576 182.24 122.376 183.44 122.136 185.34H128.416C128.416 183.48 127.216 182.24 125.396 182.24Z" fill="black" fill-opacity="0.6"/>
<path d="M454.54 192.9V191.24C451.76 191.04 449.98 189.42 449.92 186.98H452.48C452.5 188.12 453.24 188.84 454.54 189V184.74L453.9 184.6C451.38 184.06 450.12 182.66 450.12 180.46C450.12 178.12 451.88 176.44 454.54 176.16V174.46H456.08V176.16C458.6 176.42 460.16 178 460.24 180.4H457.76C457.72 179.32 457.12 178.62 456.08 178.4V182.7L456.76 182.86C459.32 183.42 460.48 184.66 460.48 186.78C460.48 189.22 458.76 190.9 456.08 191.2V192.9H454.54ZM454.46 182.34L454.54 182.36V178.38C453.34 178.58 452.62 179.3 452.62 180.38C452.62 181.44 453.18 182.06 454.46 182.34ZM456.22 185.1L456.08 185.06V188.96C457.28 188.72 458 188.02 458 187C458 185.98 457.42 185.36 456.22 185.1ZM465.056 178.68H461.856V176.38H467.516V191H465.056V178.68ZM474.908 191.24C471.848 191.24 469.828 189.28 469.828 186.32H472.368C472.368 187.98 473.348 188.96 474.968 188.96C476.688 188.96 477.788 187.84 477.788 186.06C477.788 184.36 476.768 183.2 475.008 183.2C473.888 183.2 472.868 183.76 472.348 184.52L470.088 184.04L471.888 176.38H479.508V178.74H473.728L472.948 181.78C473.648 181.32 474.528 181.06 475.528 181.06C478.448 181.06 480.388 183.04 480.388 185.92C480.388 189.08 478.168 191.24 474.908 191.24Z" fill="black"/>
<line x1="24" y1="216.5" x2="481" y2="216.5" stroke="black" stroke-opacity="0.1"/>
<path d="M24.24 247.5V246.18H34.5V247.5H30.08V260.5H28.64V247.5H24.24ZM34.0178 255.66C34.0178 252.7 36.0978 250.56 38.9378 250.56C41.7778 250.56 43.8578 252.7 43.8578 255.66C43.8578 258.6 41.7778 260.74 38.9378 260.74C36.0978 260.74 34.0178 258.6 34.0178 255.66ZM35.4178 255.64C35.4178 257.92 36.8578 259.5 38.9378 259.5C40.9978 259.5 42.4578 257.92 42.4578 255.64C42.4578 253.4 40.9978 251.8 38.9378 251.8C36.8578 251.8 35.4178 253.4 35.4178 255.64ZM48.1873 260.5H46.8273V251.98H44.8873V250.82H46.8273V247.76H48.1873V250.82H50.1273V251.98H48.1873V260.5ZM54.5481 260.74C52.4881 260.74 51.2681 259.58 51.2681 257.88C51.2681 256.1 52.6281 254.98 54.8881 254.8L58.0881 254.54V254.22C58.0881 252.32 56.9481 251.72 55.5281 251.72C53.8481 251.72 52.8481 252.48 52.8481 253.78H51.5881C51.5881 251.82 53.1881 250.56 55.5681 250.56C57.8081 250.56 59.4481 251.68 59.4481 254.24V260.5H58.2881L58.1081 258.8C57.5081 260.02 56.1881 260.74 54.5481 260.74ZM54.8681 259.62C56.9081 259.62 58.0881 258.2 58.0881 256.1V255.58L55.2281 255.8C53.4081 255.96 52.6681 256.76 52.6681 257.84C52.6681 259.02 53.5481 259.62 54.8681 259.62ZM63.6573 260.5H62.2773V245.92H63.6573V260.5Z" fill="black"/>
<path d="M431.295 264.28V262.288C427.959 262.048 425.823 260.104 425.751 257.176H428.823C428.847 258.544 429.735 259.408 431.295 259.6V254.488L430.527 254.32C427.503 253.672 425.991 251.992 425.991 249.352C425.991 246.544 428.103 244.528 431.295 244.192V242.152H433.143V244.192C436.167 244.504 438.039 246.4 438.135 249.28H435.159C435.111 247.984 434.391 247.144 433.143 246.88V252.04L433.959 252.232C437.031 252.904 438.423 254.392 438.423 256.936C438.423 259.864 436.359 261.88 433.143 262.24V264.28H431.295ZM431.199 251.608L431.295 251.632V246.856C429.855 247.096 428.991 247.96 428.991 249.256C428.991 250.528 429.663 251.272 431.199 251.608ZM433.311 254.92L433.143 254.872V259.552C434.583 259.264 435.447 258.424 435.447 257.2C435.447 255.976 434.751 255.232 433.311 254.92ZM453.874 258.664H451.738V262H448.834V258.664H439.93V255.976L447.874 244.456H451.738V255.976H453.874V258.664ZM443.194 255.976H448.834V247.768L443.194 255.976ZM457.997 249.616L461.789 244.456H465.293L461.093 250.048C461.525 249.928 461.981 249.856 462.413 249.856C466.037 249.856 468.485 252.4 468.485 255.952C468.485 259.696 465.701 262.312 461.957 262.312C458.165 262.312 455.333 259.528 455.333 255.928C455.333 253.816 456.029 252.28 457.997 249.616ZM458.477 255.952C458.477 258.088 459.893 259.576 461.957 259.576C463.949 259.576 465.389 258.088 465.389 255.952C465.389 253.84 463.973 252.376 461.957 252.376C459.869 252.376 458.477 253.84 458.477 255.952ZM468.254 244.456H480.854V247.288L474.494 262H471.302L477.782 247.288H468.254V244.456Z" fill="black"/>
<rect x="24" y="293" width="326" height="48" rx="24" fill="#F0F0F0"/>
<path d="M63.0766 317.486L53.7653 308.174C53.5917 308 53.3851 307.861 53.1576 307.767C52.93 307.673 52.686 307.624 52.4397 307.625H43.75C43.4516 307.625 43.1655 307.744 42.9545 307.955C42.7435 308.166 42.625 308.452 42.625 308.75V317.44C42.6243 317.686 42.6725 317.93 42.7668 318.158C42.8611 318.385 42.9996 318.592 43.1744 318.765L52.4856 328.077C52.8372 328.428 53.3141 328.626 53.8113 328.626C54.3084 328.626 54.7853 328.428 55.1369 328.077L63.0766 320.137C63.4281 319.785 63.6255 319.309 63.6255 318.811C63.6255 318.314 63.4281 317.837 63.0766 317.486ZM53.8113 326.22L44.875 317.281V309.875H52.2813L61.2175 318.811L53.8113 326.22ZM49.375 312.875C49.375 313.172 49.287 313.462 49.1222 313.708C48.9574 313.955 48.7231 314.147 48.449 314.261C48.1749 314.374 47.8733 314.404 47.5824 314.346C47.2914 314.288 47.0241 314.146 46.8143 313.936C46.6046 313.726 46.4617 313.459 46.4038 313.168C46.346 312.877 46.3757 312.575 46.4892 312.301C46.6027 312.027 46.795 311.793 47.0417 311.628C47.2883 311.463 47.5783 311.375 47.875 311.375C48.2728 311.375 48.6544 311.533 48.9357 311.814C49.217 312.096 49.375 312.477 49.375 312.875Z" fill="black" fill-opacity="0.4"/>
<path d="M77.392 322H76.224L80.432 310.544H81.856L86.112 322H84.912L83.792 318.96H78.512L77.392 322ZM80.992 312.16L78.864 317.952H83.424L81.28 312.16C81.232 312 81.152 311.808 81.136 311.696C81.12 311.792 81.056 312 80.992 312.16ZM90.2389 322.192C87.9829 322.192 86.6549 320.464 86.6549 318.144C86.6549 315.808 87.9829 314.048 90.2869 314.048C91.5669 314.048 92.5909 314.608 93.1349 315.728V310.336H94.2389V322H93.2789L93.1669 320.416C92.6229 321.616 91.5349 322.192 90.2389 322.192ZM90.4309 321.184C92.1269 321.184 93.1189 319.904 93.1189 318.112C93.1189 316.336 92.1269 315.04 90.4309 315.04C88.7509 315.04 87.7749 316.336 87.7749 318.112C87.7749 319.904 88.7509 321.184 90.4309 321.184ZM99.5826 322.192C97.3266 322.192 95.9986 320.464 95.9986 318.144C95.9986 315.808 97.3266 314.048 99.6306 314.048C100.911 314.048 101.935 314.608 102.479 315.728V310.336H103.583V322H102.623L102.511 320.416C101.967 321.616 100.879 322.192 99.5826 322.192ZM99.7746 321.184C101.471 321.184 102.463 319.904 102.463 318.112C102.463 316.336 101.471 315.04 99.7746 315.04C98.0946 315.04 97.1186 316.336 97.1186 318.112C97.1186 319.904 98.0946 321.184 99.7746 321.184ZM110.324 325.376V314.256H111.284L111.396 315.824C111.94 314.624 113.028 314.048 114.324 314.048C116.564 314.048 117.908 315.76 117.908 318.096C117.908 320.432 116.612 322.192 114.324 322.192C113.012 322.192 111.972 321.632 111.428 320.512V325.376H110.324ZM111.444 318.128C111.444 319.904 112.436 321.2 114.132 321.2C115.812 321.2 116.788 319.904 116.788 318.128C116.788 316.336 115.812 315.056 114.132 315.056C112.436 315.056 111.444 316.336 111.444 318.128ZM123.716 314.16V315.152H123.108C121.684 315.152 120.772 316.112 120.772 317.584V322H119.668V314.256H120.708L120.788 315.456C121.092 314.624 121.908 314.08 122.996 314.08C123.236 314.08 123.444 314.096 123.716 314.16ZM124.342 318.128C124.342 315.76 126.006 314.048 128.278 314.048C130.55 314.048 132.214 315.76 132.214 318.128C132.214 320.48 130.55 322.192 128.278 322.192C126.006 322.192 124.342 320.48 124.342 318.128ZM125.462 318.112C125.462 319.936 126.614 321.2 128.278 321.2C129.926 321.2 131.094 319.936 131.094 318.112C131.094 316.32 129.926 315.04 128.278 315.04C126.614 315.04 125.462 316.32 125.462 318.112ZM135.084 322H133.98V314.256H134.94L135.068 315.36C135.452 314.544 136.316 314.048 137.404 314.048C138.62 314.048 139.532 314.688 139.9 315.696C140.252 314.688 141.196 314.048 142.444 314.048C144.124 314.048 145.228 315.136 145.228 316.928V322H144.156V317.152C144.156 315.824 143.42 315.04 142.236 315.04C140.94 315.04 140.172 316.016 140.172 317.216V322H139.084V317.136C139.084 315.824 138.332 315.056 137.164 315.056C135.868 315.056 135.084 316.016 135.084 317.2V322ZM146.905 318.128C146.905 315.76 148.569 314.048 150.841 314.048C153.113 314.048 154.777 315.76 154.777 318.128C154.777 320.48 153.113 322.192 150.841 322.192C148.569 322.192 146.905 320.48 146.905 318.128ZM148.025 318.112C148.025 319.936 149.177 321.2 150.841 321.2C152.489 321.2 153.657 319.936 153.657 318.112C153.657 316.32 152.489 315.04 150.841 315.04C149.177 315.04 148.025 316.32 148.025 318.112ZM160.436 318.144C160.436 315.712 161.924 314.048 164.18 314.048C165.972 314.048 167.284 315.088 167.588 316.688H166.484C166.196 315.616 165.268 315.024 164.196 315.024C162.628 315.024 161.524 316.224 161.524 318.128C161.524 319.968 162.548 321.2 164.116 321.2C165.268 321.2 166.196 320.56 166.5 319.568H167.62C167.252 321.152 165.876 322.192 164.116 322.192C161.924 322.192 160.436 320.576 160.436 318.144ZM168.749 318.128C168.749 315.76 170.413 314.048 172.685 314.048C174.957 314.048 176.621 315.76 176.621 318.128C176.621 320.48 174.957 322.192 172.685 322.192C170.413 322.192 168.749 320.48 168.749 318.128ZM169.869 318.112C169.869 319.936 171.021 321.2 172.685 321.2C174.333 321.2 175.501 319.936 175.501 318.112C175.501 316.32 174.333 315.04 172.685 315.04C171.021 315.04 169.869 316.32 169.869 318.112ZM181.426 322.192C179.17 322.192 177.842 320.464 177.842 318.144C177.842 315.808 179.17 314.048 181.474 314.048C182.754 314.048 183.778 314.608 184.322 315.728V310.336H185.426V322H184.466L184.354 320.416C183.81 321.616 182.722 322.192 181.426 322.192ZM181.618 321.184C183.314 321.184 184.306 319.904 184.306 318.112C184.306 316.336 183.314 315.04 181.618 315.04C179.938 315.04 178.962 316.336 178.962 318.112C178.962 319.904 179.938 321.184 181.618 321.184ZM190.978 322.192C188.706 322.192 187.186 320.56 187.186 318.128C187.186 315.712 188.69 314.048 190.898 314.048C192.994 314.048 194.418 315.536 194.418 317.728V318.272H188.258C188.338 320.16 189.33 321.248 190.994 321.248C192.258 321.248 193.074 320.704 193.362 319.68H194.418C194.002 321.312 192.802 322.192 190.978 322.192ZM190.898 314.992C189.442 314.992 188.482 315.952 188.29 317.472H193.314C193.314 315.984 192.354 314.992 190.898 314.992Z" fill="black" fill-opacity="0.4"/>
<rect x="362" y="293" width="119" height="48" rx="24" fill="black"/>
<path d="M402.324 323H400.692L404.916 311.432H406.66L410.9 323H409.252L408.212 320.12H403.348L402.324 323ZM405.588 313.928L403.828 318.76H407.748L405.972 313.928C405.892 313.704 405.812 313.432 405.78 313.256C405.748 313.416 405.668 313.688 405.588 313.928ZM412.182 326.504V315.176H413.542L413.654 316.584C414.182 315.512 415.238 314.952 416.486 314.952C418.726 314.952 420.118 316.632 420.118 319.032C420.118 321.416 418.806 323.208 416.486 323.208C415.238 323.208 414.198 322.68 413.686 321.72V326.504H412.182ZM413.702 319.096C413.702 320.696 414.63 321.848 416.166 321.848C417.702 321.848 418.614 320.696 418.614 319.096C418.614 317.48 417.702 316.328 416.166 316.328C414.63 316.328 413.702 317.464 413.702 319.096ZM421.776 326.504V315.176H423.136L423.248 316.584C423.776 315.512 424.832 314.952 426.08 314.952C428.32 314.952 429.712 316.632 429.712 319.032C429.712 321.416 428.4 323.208 426.08 323.208C424.832 323.208 423.792 322.68 423.28 321.72V326.504H421.776ZM423.296 319.096C423.296 320.696 424.224 321.848 425.76 321.848C427.296 321.848 428.208 320.696 428.208 319.096C428.208 317.48 427.296 316.328 425.76 316.328C424.224 316.328 423.296 317.464 423.296 319.096ZM432.905 323H431.401V311.224H432.905V323ZM434.367 326.504V325.272H435.375C436.095 325.272 436.671 325.16 437.039 324.168L437.311 323.416L434.159 315.176H435.743L438.015 321.48L440.335 315.176H441.887L438.191 324.76C437.663 326.104 436.879 326.664 435.679 326.664C435.183 326.664 434.767 326.6 434.367 326.504Z" fill="white"/>
<rect x="24" y="365" width="457" height="60" rx="30" fill="black"/>
<path d="M183.804 390.712C181.308 390.712 179.804 392.552 179.804 395.288C179.804 398.088 181.436 399.704 183.82 399.704C185.788 399.704 187.372 398.696 187.372 396.36V396.024H183.5V394.632H188.844V401.016H187.532L187.42 399.448C186.796 400.456 185.388 401.192 183.692 401.192C180.412 401.192 178.156 398.824 178.156 395.256C178.156 391.736 180.428 389.24 183.836 389.24C186.364 389.24 188.332 390.696 188.716 392.92H187.052C186.62 391.448 185.34 390.712 183.804 390.712ZM190.31 397.08C190.31 394.664 192.038 392.968 194.39 392.968C196.726 392.968 198.454 394.664 198.454 397.08C198.454 399.496 196.726 401.192 194.39 401.192C192.038 401.192 190.31 399.496 190.31 397.08ZM191.83 397.08C191.83 398.712 192.87 399.848 194.39 399.848C195.894 399.848 196.95 398.712 196.95 397.08C196.95 395.448 195.894 394.312 194.39 394.312C192.87 394.312 191.83 395.448 191.83 397.08ZM206.702 401H205.198V394.44H203.662V393.176H205.198V390.728H206.702V393.176H208.238V394.44H206.702V401ZM208.998 397.08C208.998 394.664 210.726 392.968 213.078 392.968C215.414 392.968 217.142 394.664 217.142 397.08C217.142 399.496 215.414 401.192 213.078 401.192C210.726 401.192 208.998 399.496 208.998 397.08ZM210.518 397.08C210.518 398.712 211.558 399.848 213.078 399.848C214.582 399.848 215.638 398.712 215.638 397.08C215.638 395.448 214.582 394.312 213.078 394.312C211.558 394.312 210.518 395.448 210.518 397.08ZM228.238 401.176C224.942 401.176 222.75 398.808 222.75 395.224C222.75 391.656 225.006 389.24 228.318 389.24C230.926 389.24 232.926 390.792 233.358 393.16H231.678C231.246 391.656 229.95 390.744 228.27 390.744C225.934 390.744 224.398 392.504 224.398 395.208C224.398 397.912 225.934 399.672 228.27 399.672C229.966 399.672 231.31 398.76 231.742 397.336H233.406C232.91 399.64 230.846 401.176 228.238 401.176ZM236.498 400.984H234.994V389.224H236.498V394.376C236.994 393.528 237.938 392.952 239.154 392.952C241.154 392.952 242.114 394.216 242.114 396.216V401H240.61V396.552C240.61 394.968 239.858 394.328 238.738 394.328C237.282 394.328 236.498 395.384 236.498 396.728V400.984ZM247.573 401.192C245.269 401.192 243.685 399.528 243.685 397.096C243.685 394.648 245.237 392.952 247.509 392.952C249.733 392.952 251.189 394.488 251.189 396.808V397.368L245.141 397.384C245.253 399.032 246.117 399.944 247.605 399.944C248.773 399.944 249.541 399.464 249.797 398.568H251.205C250.821 400.248 249.509 401.192 247.573 401.192ZM247.509 394.216C246.197 394.216 245.365 395 245.173 396.376H249.685C249.685 395.08 248.837 394.216 247.509 394.216ZM252.357 397.096C252.357 394.648 253.909 392.952 256.197 392.952C258.165 392.952 259.541 394.072 259.813 395.816H258.309C258.053 394.824 257.253 394.296 256.245 394.296C254.821 394.296 253.845 395.384 253.845 397.08C253.845 398.76 254.757 399.848 256.181 399.848C257.253 399.848 258.053 399.288 258.325 398.36H259.829C259.525 400.056 258.069 401.192 256.181 401.192C253.877 401.192 252.357 399.56 252.357 397.096ZM262.952 401H261.448V389.224H262.952V396.856L266.424 393.176H268.312L265.32 396.296L268.296 401H266.568L264.28 397.384L262.952 398.776V401ZM268.732 397.08C268.732 394.664 270.46 392.968 272.812 392.968C275.148 392.968 276.876 394.664 276.876 397.08C276.876 399.496 275.148 401.192 272.812 401.192C270.46 401.192 268.732 399.496 268.732 397.08ZM270.252 397.08C270.252 398.712 271.292 399.848 272.812 399.848C274.316 399.848 275.372 398.712 275.372 397.08C275.372 395.448 274.316 394.312 272.812 394.312C271.292 394.312 270.252 395.448 270.252 397.08ZM283.762 393.176H285.25V401H283.906L283.746 399.816C283.298 400.632 282.258 401.192 281.106 401.192C279.282 401.192 278.258 399.96 278.258 398.04V393.176H279.762V397.544C279.762 399.224 280.482 399.864 281.634 399.864C283.01 399.864 283.762 398.984 283.762 397.304V393.176ZM289.64 401H288.136V394.44H286.6V393.176H288.136V390.728H289.64V393.176H291.176V394.44H289.64V401Z" fill="white"/>
<path d="M317.796 387.454L324.546 394.204C324.651 394.309 324.734 394.433 324.791 394.57C324.848 394.706 324.877 394.853 324.877 395.001C324.877 395.149 324.848 395.296 324.791 395.432C324.734 395.569 324.651 395.693 324.546 395.798L317.796 402.548C317.585 402.759 317.298 402.878 316.999 402.878C316.7 402.878 316.414 402.759 316.202 402.548C315.991 402.337 315.872 402.05 315.872 401.751C315.872 401.452 315.991 401.165 316.202 400.954L321.031 396.125L307.25 396.125C306.952 396.125 306.665 396.007 306.455 395.796C306.244 395.585 306.125 395.298 306.125 395C306.125 394.702 306.244 394.416 306.455 394.205C306.665 393.994 306.952 393.875 307.25 393.875L321.031 393.875L316.201 389.046C315.99 388.835 315.871 388.548 315.871 388.249C315.871 387.95 315.99 387.664 316.201 387.452C316.413 387.241 316.699 387.122 316.998 387.122C317.297 387.122 317.584 387.241 317.795 387.452L317.796 387.454Z" fill="white"/>
</svg>
